<svg width="60" height="60" viewBox="0 0 60 60" fill="none" xmlns="http://www.w3.org/2000/svg">
<path d="M36.516 22.8618H20.2V18.4839H36.516C37.1631 18.4839 37.6879 17.9592 37.6879 17.312C37.6879 16.6649 37.1631 16.1402 36.516 16.1402H20.2V16.0033C20.2 15.3562 19.6752 14.8314 19.0281 14.8314H2.43211C1.09113 14.8313 0 15.9224 0 17.2635V24.0821C0 25.4231 1.09113 26.5142 2.43211 26.5142H19.0281C19.6752 26.5142 20.2 25.9895 20.2 25.3423V25.2056H36.516C37.1631 25.2056 37.6879 24.6808 37.6879 24.0337C37.6879 23.3865 37.1631 22.8618 36.516 22.8618ZM17.8562 24.1704H2.43211C2.38336 24.1704 2.34375 24.1308 2.34375 24.0821V17.2635C2.34375 17.2148 2.38336 17.1751 2.43211 17.1751H17.8562V24.1704Z" fill="#3C3F7B"/>
<path d="M31.2639 10.9707H46.9013V30.3754H31.2639V10.9707Z" fill="#BBBFEA"/>
<path d="M29.9551 12.1429H48.2099C48.857 12.1429 49.3817 11.6182 49.3817 10.9711V5.16254C49.3817 4.51543 48.857 3.99066 48.2099 3.99066H29.9551C29.308 3.99066 28.7832 4.51543 28.7832 5.16254V10.9711C28.7832 11.6183 29.308 12.1429 29.9551 12.1429ZM31.127 6.33441H47.038V9.79918H31.127V6.33441Z" fill="#3C3F7B"/>
<path d="M29.9551 37.3559H48.2099C48.857 37.3559 49.3817 36.8311 49.3817 36.184V30.3756C49.3817 29.7284 48.857 29.2037 48.2099 29.2037H29.9551C29.308 29.2037 28.7832 29.7285 28.7832 30.3756V36.184C28.7832 36.8311 29.308 37.3559 29.9551 37.3559ZM31.127 31.5474H47.038V35.012H31.127V31.5474Z" fill="#3C3F7B"/>
<path d="M58.828 53.6659H55.1896V50.4856C55.1896 49.0306 54.183 47.8064 52.8296 47.4726V44.6948C52.8296 42.7123 51.2166 41.0994 49.2341 41.0994H28.8012C26.8186 41.0994 25.2056 42.7123 25.2056 44.6948V47.4726C23.8524 47.8064 22.8457 49.0306 22.8457 50.4856V53.666H19.2072C18.5601 53.666 18.0353 54.1907 18.0353 54.8378C18.0353 55.485 18.5601 56.0097 19.2072 56.0097H58.828C59.4751 56.0097 59.9999 55.485 59.9999 54.8378C59.9999 54.1906 59.4751 53.6659 58.828 53.6659ZM27.5495 44.6948C27.5495 44.0046 28.1111 43.4431 28.8013 43.4431H49.2342C49.9245 43.4431 50.4859 44.0046 50.4859 44.6948V47.3827H27.5495V44.6948ZM25.1896 53.6659V50.4856C25.1896 50.067 25.5301 49.7264 25.9488 49.7264H52.0866C52.5053 49.7264 52.8458 50.0669 52.8458 50.4856V53.666H25.1896V53.6659Z" fill="#3C3F7B"/>
</svg>
