<svg width="36" height="36" viewBox="0 0 36 36" fill="none" xmlns="http://www.w3.org/2000/svg">
<g clip-path="url(#clip0)">
<path d="M22.5 5.5C23.0967 5.5 23.669 5.76339 24.091 6.23223C24.5129 6.70107 24.75 7.33696 24.75 8V28C24.75 28.663 24.5129 29.2989 24.091 29.7678C23.669 30.2366 23.0967 30.5 22.5 30.5H13.5C12.9033 30.5 12.331 30.2366 11.909 29.7678C11.4871 29.2989 11.25 28.663 11.25 28V8C11.25 7.33696 11.4871 6.70107 11.909 6.23223C12.331 5.76339 12.9033 5.5 13.5 5.5H22.5ZM13.5 3C12.3065 3 11.1619 3.52678 10.318 4.46447C9.47411 5.40215 9 6.67392 9 8V28C9 29.3261 9.47411 30.5979 10.318 31.5355C11.1619 32.4732 12.3065 33 13.5 33H22.5C23.6935 33 24.8381 32.4732 25.682 31.5355C26.5259 30.5979 27 29.3261 27 28V8C27 6.67392 26.5259 5.40215 25.682 4.46447C24.8381 3.52678 23.6935 3 22.5 3H13.5Z" fill="#FFCE0A"/>
<path d="M18 27.0001C18.5968 27.0001 19.1691 26.7631 19.591 26.3411C20.013 25.9192 20.25 25.3469 20.25 24.7501C20.25 24.1534 20.013 23.5811 19.591 23.1591C19.1691 22.7372 18.5968 22.5001 18 22.5001C17.4033 22.5001 16.831 22.7372 16.409 23.1591C15.9871 23.5811 15.75 24.1534 15.75 24.7501C15.75 25.3469 15.9871 25.9192 16.409 26.3411C16.831 26.7631 17.4033 27.0001 18 27.0001ZM3.59777 9.13062C3.72839 9.19973 3.84412 9.29391 3.93834 9.40776C4.03256 9.52161 4.10342 9.65291 4.14688 9.79416C4.19035 9.93541 4.20555 10.0838 4.19163 10.231C4.17771 10.3781 4.13495 10.521 4.06577 10.6516C2.86932 12.916 2.24589 15.4391 2.25002 18.0001C2.25002 20.6551 2.90702 23.1571 4.06577 25.3486C4.20541 25.6124 4.23455 25.9208 4.14678 26.206C4.05901 26.4913 3.86153 26.73 3.59777 26.8696C3.33401 27.0093 3.02559 27.0384 2.74034 26.9506C2.4551 26.8629 2.21641 26.6654 2.07677 26.4016C0.708822 23.8127 -0.00420198 20.9282 1.86287e-05 18.0001C1.86287e-05 14.9694 0.751519 12.1074 2.07677 9.59862C2.14588 9.468 2.24006 9.35227 2.35391 9.25805C2.46776 9.16383 2.59906 9.09297 2.74031 9.0495C2.88156 9.00604 3.02998 8.99084 3.17711 9.00476C3.32423 9.01867 3.46718 9.06144 3.59777 9.13062ZM32.4023 9.13062C32.5329 9.06144 32.6758 9.01867 32.8229 9.00476C32.9701 8.99084 33.1185 9.00604 33.2597 9.0495C33.401 9.09297 33.5323 9.16383 33.6461 9.25805C33.76 9.35227 33.8542 9.468 33.9233 9.59862C35.2913 12.1875 36.0043 15.072 36 18.0001C36.0043 20.9282 35.2913 23.8128 33.9233 26.4016C33.7836 26.6654 33.5449 26.8629 33.2597 26.9506C32.9745 27.0384 32.666 27.0093 32.4023 26.8696C32.1385 26.73 31.941 26.4913 31.8533 26.206C31.7655 25.9208 31.7946 25.6124 31.9343 25.3486C33.1307 23.0842 33.7541 20.5612 33.75 18.0001C33.75 15.3451 33.093 12.8431 31.9343 10.6516C31.8651 10.521 31.8223 10.3781 31.8084 10.231C31.7945 10.0838 31.8097 9.93541 31.8532 9.79416C31.8966 9.65291 31.9675 9.52161 32.0617 9.40776C32.1559 9.29391 32.2716 9.19973 32.4023 9.13062ZM6.87827 12.4516C7.01601 12.5053 7.14182 12.5857 7.24849 12.688C7.35517 12.7904 7.44062 12.9128 7.49997 13.0482C7.55932 13.1836 7.59139 13.3294 7.59436 13.4772C7.59733 13.625 7.57113 13.7719 7.51727 13.9096C7.00863 15.2133 6.7484 16.6007 6.75002 18.0001C6.75002 19.4446 7.02002 20.8239 7.51502 22.0906C7.5778 22.2297 7.61165 22.38 7.6145 22.5326C7.61734 22.6851 7.58913 22.8367 7.53158 22.978C7.47402 23.1193 7.38833 23.2474 7.27971 23.3545C7.17108 23.4617 7.0418 23.5456 6.89973 23.6012C6.75765 23.6568 6.60575 23.6829 6.45326 23.678C6.30077 23.673 6.15087 23.6371 6.0127 23.5725C5.87452 23.5078 5.75094 23.4156 5.64948 23.3017C5.54802 23.1877 5.4708 23.0543 5.42252 22.9096C4.81157 21.345 4.49869 19.6798 4.50002 18.0001C4.50002 16.2699 4.82627 14.6139 5.42252 13.0906C5.53101 12.813 5.74525 12.5897 6.01819 12.4699C6.29113 12.3501 6.60047 12.3435 6.87827 12.4516ZM29.1218 12.4516C29.2595 12.3978 29.4064 12.3716 29.5542 12.3745C29.702 12.3775 29.8478 12.4096 29.9832 12.4689C30.1186 12.5283 30.241 12.6137 30.3434 12.7204C30.4457 12.8271 30.5261 12.9529 30.5798 13.0906C31.1738 14.6139 31.5 16.2699 31.5 18.0001C31.5 19.7304 31.1738 21.3864 30.5775 22.9096C30.4588 23.1725 30.2437 23.3797 29.9766 23.4885C29.7095 23.5974 29.4107 23.5994 29.1422 23.4943C28.8736 23.3892 28.6556 23.1849 28.5333 22.9237C28.411 22.6624 28.3937 22.3642 28.485 22.0906C28.98 20.8239 29.25 19.4446 29.25 18.0001C29.25 16.5556 28.98 15.1764 28.485 13.9096C28.3761 13.6318 28.382 13.3222 28.5014 13.0487C28.6208 12.7753 28.844 12.5605 29.1218 12.4516Z" fill="#FFCE0A"/>
</g>
<defs>
<clipPath id="clip0">
<rect width="36" height="36" fill="white"/>
</clipPath>
</defs>
</svg>
