<svg width="60" height="60" viewBox="0 0 60 60" fill="none" xmlns="http://www.w3.org/2000/svg">
<g clip-path="url(#clip0)">
<path d="M36.9023 7.82788C33.035 7.82788 30.0007 12.1363 30.0007 12.1363C30.0007 12.1363 27.1386 7.82788 23.0975 7.82788C19.1668 7.82788 15.957 11.0672 15.7469 14.9891C15.6286 17.2048 16.3435 18.8911 17.3506 20.4183C19.3633 23.4695 30.0136 30.7727 30.0136 30.7727C30.0136 30.7727 40.6238 23.4963 42.6498 20.4183C43.6592 18.8841 44.372 17.2048 44.2532 14.9891C44.0432 11.0672 40.8333 7.82788 36.9023 7.82788Z" fill="#BBBFEA"/>
<path d="M27.4301 38.3578C27.7746 37.8436 27.9758 37.2257 27.9758 36.5614C27.9758 34.778 26.5252 33.3269 24.7421 33.3269H23.4861C23.5635 33.0512 23.605 32.7607 23.605 32.4606C23.605 30.6906 22.165 29.2505 20.3948 29.2505H15.6919C12.7363 29.2505 10.2176 31.4582 9.8332 34.3857C9.82734 34.4301 9.82406 34.475 9.82336 34.5199L9.80086 35.9579H7.74937C6.62449 35.2069 5.27379 34.7687 3.82266 34.7687H1.17188C0.524766 34.7687 0 35.2933 0 35.9406V47.7767C0 48.424 0.524766 48.9486 1.17188 48.9486H3.82266C5.27379 48.9486 6.62461 48.5103 7.74949 47.7593H9.78269V48.0276C9.78269 50.3129 11.6419 52.1722 13.9273 52.1722H24.1922C25.9758 52.1722 27.4268 50.7212 27.4268 48.9377C27.4268 48.4005 27.2951 47.8935 27.0623 47.4471C27.8851 46.8601 28.4225 45.8978 28.4225 44.8121C28.4225 44.0289 28.1427 43.3098 27.6779 42.7495C28.1428 42.1892 28.4225 41.4702 28.4225 40.6869C28.4224 39.7732 28.0414 38.9467 27.4301 38.3578ZM2.34375 46.6049V37.1124H3.82266C6.43969 37.1124 8.56887 39.2415 8.56887 41.8587C8.56887 44.4758 6.43969 46.6049 3.82266 46.6049H2.34375ZM24.1921 49.8285H13.9271C12.9341 49.8285 12.1263 49.0206 12.1263 48.0276V46.5874C12.1263 45.9402 11.6016 45.4155 10.9545 45.4155H9.95414C10.5634 44.3694 10.9126 43.154 10.9126 41.8587C10.9126 40.5633 10.5634 39.3479 9.95414 38.3017H10.9545C11.5945 38.3017 12.1161 37.7882 12.1262 37.1482L12.1658 34.6288C12.4246 32.8943 13.9295 31.5941 15.692 31.5941H20.395C20.8726 31.5941 21.2613 31.9827 21.2613 32.4605C21.2613 32.9381 20.8727 33.3268 20.395 33.3268H17.2938C16.6467 33.3268 16.122 33.8515 16.122 34.4987C16.122 35.1459 16.6467 35.6706 17.2938 35.6706H24.7423C25.233 35.6706 25.6322 36.0702 25.6322 36.5613C25.6322 37.0524 25.233 37.4521 24.7423 37.4521H24.5174C23.8703 37.4521 23.3455 37.9767 23.3455 38.6239C23.3455 39.2712 23.8703 39.7958 24.5174 39.7958H25.1885C25.6793 39.7959 26.0788 40.1958 26.0788 40.6869C26.0788 41.178 25.6796 41.5776 25.1889 41.5776H24.5175C23.8704 41.5776 23.3456 42.1023 23.3456 42.7495C23.3456 43.3967 23.8704 43.9214 24.5175 43.9214H25.1889C25.6796 43.9214 26.0788 44.321 26.0788 44.8121C26.0788 45.3033 25.6796 45.7029 25.1889 45.7029H23.8952C23.2481 45.7029 22.7234 46.2275 22.7234 46.8748C22.7234 47.522 23.2481 48.0466 23.8952 48.0466H24.1927C24.6836 48.0467 25.083 48.4465 25.083 48.9377C25.083 49.429 24.6833 49.8285 24.1921 49.8285Z" fill="#3C3F7B"/>
<path d="M58.8282 34.7687H56.1774C54.7263 34.7687 53.3756 35.207 52.2507 35.9579H50.1991L50.1766 34.5199C50.1759 34.475 50.1726 34.4303 50.1667 34.3857C49.7824 31.4582 47.2636 29.2505 44.3081 29.2505H39.6051C37.8351 29.2505 36.395 30.6906 36.395 32.4606C36.395 32.7607 36.4365 33.0512 36.5138 33.3269H35.2578C33.4748 33.3269 32.0241 34.7778 32.0241 36.5614C32.0241 37.2255 32.2253 37.8436 32.5699 38.3578C31.9585 38.9467 31.5775 39.7733 31.5775 40.687C31.5775 41.4703 31.8574 42.1894 32.3221 42.7496C31.8572 43.3099 31.5775 44.029 31.5775 44.8123C31.5775 45.8979 32.1149 46.8602 32.9377 47.4472C32.705 47.8936 32.5733 48.4007 32.5733 48.9378C32.5733 50.7213 34.0243 52.1723 35.8079 52.1723H46.0728C48.3582 52.1723 50.2174 50.313 50.2174 48.0278V47.7594H52.2506C53.3754 48.5105 54.7261 48.9487 56.1774 48.9487H58.8282C59.4753 48.9487 60.0001 48.4241 60.0001 47.7769V35.9406C60.0001 35.2933 59.4753 34.7687 58.8282 34.7687ZM47.8736 46.5874V48.0276C47.8736 49.0207 47.0657 49.8285 46.0728 49.8285H35.8079C35.3167 49.8285 34.917 49.4289 34.917 48.9377C34.917 48.4466 35.3164 48.0467 35.8074 48.0466H36.1048C36.7519 48.0466 37.2767 47.522 37.2767 46.8748C37.2767 46.2275 36.7519 45.7029 36.1048 45.7029H34.8112C34.3204 45.7029 33.9213 45.3033 33.9213 44.8121C33.9213 44.321 34.3204 43.9214 34.8112 43.9214H35.4826C36.1297 43.9214 36.6544 43.3967 36.6544 42.7495C36.6544 42.1023 36.1297 41.5776 35.4826 41.5776H34.8112C34.3204 41.5776 33.9213 41.178 33.9213 40.6869C33.9213 40.1958 34.3206 39.7959 34.8112 39.7958H35.4826C36.1297 39.7958 36.6544 39.2712 36.6544 38.6239C36.6544 37.9767 36.1297 37.4521 35.4826 37.4521H35.2577C34.7669 37.4521 34.3677 37.0524 34.3677 36.5613C34.3677 36.0702 34.7669 35.6706 35.2577 35.6706H42.7061C43.3532 35.6706 43.878 35.1459 43.878 34.4987C43.878 33.8515 43.3532 33.3268 42.7061 33.3268H39.605C39.1273 33.3268 38.7386 32.9382 38.7386 32.4605C38.7386 31.9828 39.1272 31.5941 39.605 31.5941H44.3079C46.0704 31.5941 47.5754 32.8943 47.8341 34.6288L47.8737 37.1482C47.8838 37.7882 48.4054 38.3017 49.0455 38.3017H50.0458C49.4365 39.3478 49.0873 40.5632 49.0873 41.8587C49.0873 43.1541 49.4365 44.3694 50.0458 45.4155H49.0455C48.3984 45.4155 47.8736 45.9402 47.8736 46.5874ZM57.6563 46.6049H56.1774C53.5604 46.6049 51.4312 44.4758 51.4312 41.8587C51.4312 39.2415 53.5604 37.1124 56.1774 37.1124H57.6563V46.6049Z" fill="#3C3F7B"/>
</g>
<defs>
<clipPath id="clip0">
<rect width="60" height="60" fill="white"/>
</clipPath>
</defs>
</svg>
