<svg width="60" height="60" viewBox="0 0 60 60" fill="none" xmlns="http://www.w3.org/2000/svg">
<g clip-path="url(#clip0)">
<path d="M3.41705 39.3086H12.8487V59.9888H3.41705V39.3086Z" fill="#BBBFEA"/>
<path d="M31.0532 30.0007H40.4848V59.989H31.0532V30.0007Z" fill="#BBBFEA"/>
<path d="M6.80891 14.649C6.80891 15.2961 7.33356 15.8209 7.98079 15.8209C8.6136 15.8209 9.12911 15.3192 9.15184 14.692C11.0684 14.4026 12.4206 13.1645 12.6363 11.4647C12.8822 9.52922 11.6199 7.67086 9.56704 6.94512C9.4229 6.89414 9.28485 6.84504 9.15266 6.79758V3.7091C9.44552 3.82512 9.6513 3.98672 9.76052 4.14234C10.1322 4.67215 10.8631 4.80035 11.3929 4.4284C11.9227 4.05668 12.0508 3.32578 11.679 2.79598C11.1846 2.09133 10.3017 1.49906 9.15266 1.2852V1.17188C9.15266 0.524766 8.62802 0 7.98079 0C7.33356 0 6.80891 0.524766 6.80891 1.17188V1.37016C6.67966 1.40098 6.54888 1.43613 6.41657 1.47609C5.05684 1.88566 4.03075 3.20484 3.92106 4.68398C3.81243 6.14836 4.59032 7.42008 6.00173 8.08559C6.18302 8.17102 6.45946 8.28668 6.80891 8.42402V12.1805C6.36009 12.0239 5.95649 11.784 5.68509 11.447C5.27915 10.9431 4.54145 10.8635 4.03731 11.2695C3.53329 11.6755 3.45384 12.4132 3.85977 12.9172C4.61739 13.8579 5.72235 14.374 6.80891 14.6053V14.649ZM10.3113 11.1695C10.2409 11.7239 9.82743 12.1214 9.15266 12.3035V9.3123C10.0493 9.77238 10.3879 10.5657 10.3113 11.1695ZM6.25837 4.85719C6.2879 4.4584 6.50856 4.07613 6.80891 3.86191V5.86184C6.41212 5.61715 6.22708 5.28 6.25837 4.85719Z" fill="#3C3F7B"/>
<path d="M26.6668 25.3464H17.235C16.5878 25.3464 16.0632 25.8712 16.0632 26.5183V58.8281C16.0632 59.4752 16.5878 60 17.235 60H26.6668C27.314 60 27.8386 59.4752 27.8386 58.8281V26.5183C27.8386 25.8712 27.314 25.3464 26.6668 25.3464ZM25.4949 57.6562H18.4069V27.6902H25.4949V57.6562Z" fill="#3C3F7B"/>
<path d="M54.3029 19.5429H44.8713C44.2241 19.5429 43.6994 20.0677 43.6994 20.7148V58.828C43.6994 59.4751 44.2241 59.9999 44.8713 59.9999H54.3029C54.9501 59.9999 55.4748 59.4751 55.4748 58.828V20.7148C55.4748 20.0676 54.9501 19.5429 54.3029 19.5429ZM53.131 57.6562H46.0432V21.8867H53.131V57.6562Z" fill="#3C3F7B"/>
<path d="M56.291 2.78206C56.0296 2.48464 55.6355 2.33886 55.2436 2.39581L49.6638 3.20042C49.0233 3.29277 48.5788 3.88691 48.6712 4.52757C48.7637 5.16823 49.3578 5.61355 49.9984 5.52015L51.6287 5.28507L36.7221 18.668L22.4427 12.0669C22.0022 11.8634 21.4817 11.9523 21.1339 12.2905L5.07197 27.9109C4.60803 28.3622 4.5976 29.1041 5.04889 29.5681C5.27857 29.8043 5.58361 29.9229 5.88912 29.9229C6.1835 29.9229 6.47822 29.8126 6.70604 29.5912L22.1904 14.5325L36.439 21.1192C36.8639 21.3155 37.3651 21.2404 37.7136 20.9275L53.2359 6.99191L52.7687 8.66722C52.5948 9.29066 52.9592 9.93694 53.5827 10.1109C53.688 10.1401 53.7938 10.1542 53.8981 10.1542C54.411 10.1541 54.8818 9.81484 55.0263 9.29687L56.5397 3.8705C56.6461 3.48894 56.5526 3.0796 56.291 2.78206Z" fill="#3C3F7B"/>
</g>
<defs>
<clipPath id="clip0">
<rect width="60" height="60" fill="white"/>
</clipPath>
</defs>
</svg>
