<svg width="60" height="60" viewBox="0 0 60 60" fill="none" xmlns="http://www.w3.org/2000/svg">
<g clip-path="url(#clip0)">
<path fill-rule="evenodd" clip-rule="evenodd" d="M46.4098 15.7002V45.9678H55.7867L55.7868 15.7007L53.4425 14.3004L51.0982 15.7422L48.754 14.3004L46.4098 15.7002Z" fill="#BBBFEA"/>
<path fill-rule="evenodd" clip-rule="evenodd" d="M18.279 28.246H27.656V55.7838H18.279V28.246Z" fill="#BBBFEA"/>
<path d="M58.8342 54.6119H56.9585L56.9587 13.8668C56.9587 13.6895 56.9183 13.5143 56.841 13.3548L52.1525 3.69881C51.7395 2.82524 50.4565 2.82559 50.0436 3.69881L45.3552 13.3548C45.2778 13.5143 45.2375 13.6893 45.2375 13.8668L45.2374 54.6119H42.8933V19.6896C42.8933 19.0423 42.3684 18.5175 41.7212 18.5175H32.3442C31.697 18.5175 31.1721 19.0423 31.1721 19.6896V54.6119H14.7625V36.4509C14.7625 35.8035 14.2376 35.2788 13.5904 35.2788H4.21345C3.56621 35.2788 3.04134 35.8035 3.04134 36.4509V54.6119H1.16595C-0.389213 54.6739 -0.388041 56.8947 1.16595 56.9561H58.8342C60.3893 56.8942 60.3882 54.6733 58.8342 54.6119ZM49.0203 11.1736C50.3698 11.5782 51.8262 11.5782 53.1759 11.1736L54.6144 14.1364L54.6143 49.2855H47.5816L47.5817 14.1364L49.0203 11.1736ZM51.0981 6.89447L52.1317 9.02315C51.451 9.17037 50.7452 9.17037 50.0645 9.02315L51.0981 6.89447ZM47.5816 51.6298H54.6143V54.6119H47.5816V51.6298ZM33.5163 20.8617H40.549V54.6119H33.5163V20.8617ZM5.38557 37.623H12.4183V54.6119H5.38557V37.623Z" fill="#3C3F7B"/>
</g>
<defs>
<clipPath id="clip0">
<rect width="60" height="60" fill="white"/>
</clipPath>
</defs>
</svg>
