<svg width="60" height="60" viewBox="0 0 60 60" fill="none" xmlns="http://www.w3.org/2000/svg">
<path d="M44.9761 13.9086V53.6433H15.024V13.9086H44.9761Z" fill="#BBBFEA"/>
<path d="M47.4291 7.55191H39.6846V5.87613C39.6846 5.22891 39.1599 4.70426 38.5127 4.70426H35.7617C35.2167 2.02383 32.8403 0 30 0C27.1597 0 24.7833 2.02383 24.2384 4.70426H21.4873C20.8402 4.70426 20.3154 5.22891 20.3154 5.87613V7.55191H12.571C10.378 7.55191 8.59384 9.33598 8.59384 11.5289V56.0231C8.59384 58.2161 10.378 60 12.571 60H47.429C49.6219 60 51.4061 58.2159 51.4061 56.0231V11.5288C51.4061 9.33598 49.6219 7.55191 47.4291 7.55191ZM22.6592 7.04801H25.2928C25.9401 7.04801 26.4647 6.52336 26.4647 5.87613C26.4647 3.92836 28.0506 2.34375 30 2.34375C31.9494 2.34375 33.5353 3.92836 33.5353 5.87613C33.5353 6.52336 34.0601 7.04801 34.7072 7.04801H37.3409V12.7368H22.6592V7.04801ZM49.0623 56.0231C49.0623 56.9236 48.3297 57.6562 47.429 57.6562H12.571C11.6702 57.6562 10.9376 56.9236 10.9376 56.0231V11.5288C10.9376 10.6282 11.6702 9.89555 12.571 9.89555H20.3154V13.9085C20.3154 14.5557 20.8402 15.0804 21.4873 15.0804H38.5126C39.1597 15.0804 39.6845 14.5557 39.6845 13.9085V9.89566H47.429C48.3297 9.89566 49.0623 10.6283 49.0623 11.5289V56.0231Z" fill="#3C3F7B"/>
<path d="M36.9383 22.5134H23.0617C22.4145 22.5134 21.8898 23.038 21.8898 23.6852C21.8898 24.3325 22.4145 24.8571 23.0617 24.8571H36.9383C37.5855 24.8571 38.1102 24.3325 38.1102 23.6852C38.1102 23.038 37.5855 22.5134 36.9383 22.5134Z" fill="#3C3F7B"/>
<path d="M36.9383 31.5842H23.0617C22.4145 31.5842 21.8898 32.1089 21.8898 32.7561C21.8898 33.4033 22.4145 33.928 23.0617 33.928H36.9383C37.5855 33.928 38.1102 33.4033 38.1102 32.7561C38.1102 32.1089 37.5855 31.5842 36.9383 31.5842Z" fill="#3C3F7B"/>
<path d="M36.9383 40.6551H23.0617C22.4145 40.6551 21.8898 41.1797 21.8898 41.827C21.8898 42.4742 22.4145 42.9988 23.0617 42.9988H36.9383C37.5855 42.9988 38.1102 42.4742 38.1102 41.827C38.1102 41.1797 37.5855 40.6551 36.9383 40.6551Z" fill="#3C3F7B"/>
</svg>
