<svg width="60" height="60" viewBox="0 0 60 60" fill="none" xmlns="http://www.w3.org/2000/svg">
<path d="M29.9997 15.8043C20.3067 15.8043 12.449 23.6657 12.449 33.3633C12.449 43.061 20.3066 50.9225 29.9997 50.9225C39.6927 50.9225 47.5504 43.0611 47.5504 33.3635C47.5504 23.6658 39.6926 15.8043 29.9997 15.8043ZM29.9997 35.8767C28.6116 35.8767 27.4864 34.7514 27.4864 33.3633C27.4864 31.9753 28.6116 30.85 29.9997 30.85C31.3878 30.85 32.513 31.9753 32.513 33.3633C32.513 34.7514 31.3876 35.8767 29.9997 35.8767Z" fill="#BBBFEA"/>
<path d="M48.8265 14.5284C44.7066 10.4066 39.4743 7.80188 33.8068 6.99504C34.2662 6.28594 34.5332 5.44113 34.5332 4.53504C34.5332 2.03438 32.4996 0 29.9998 0C27.5 0 25.4663 2.03438 25.4663 4.53504C25.4663 5.44113 25.7334 6.28594 26.1928 6.99504C20.5253 7.80188 15.293 10.4065 11.1732 14.5284C6.14456 19.5594 3.37531 26.2485 3.37531 33.3633C3.37531 40.4781 6.14468 47.1671 11.1732 52.1982C16.2019 57.2292 22.888 60 29.9998 60C37.1117 60 43.7977 57.2292 48.8265 52.1981C53.8551 47.167 56.6245 40.478 56.6245 33.3632C56.6245 26.2484 53.8551 19.5593 48.8265 14.5284ZM52.9184 34.535H54.2528C53.9755 40.3493 51.6454 45.6347 47.9736 49.6798L47.0343 48.7405C46.5766 48.283 45.8348 48.283 45.3769 48.7405C44.9193 49.1981 44.9193 49.9402 45.3769 50.3979L46.317 51.338C42.2729 55.0161 36.987 57.3505 31.1716 57.6284V56.2819C31.1716 55.6348 30.6468 55.11 29.9997 55.11C29.3525 55.11 28.8278 55.6348 28.8278 56.2819V57.6284C23.0124 57.3505 17.7266 55.0161 13.6824 51.338L14.6225 50.3979C15.0801 49.9403 15.0801 49.1982 14.6225 48.7405C14.1649 48.283 13.4228 48.283 12.9651 48.7405L12.0259 49.6798C8.35402 45.6347 6.02398 40.3494 5.74671 34.535H7.08113C7.72835 34.535 8.253 34.0103 8.253 33.3632C8.253 32.7161 7.72835 32.1913 7.08113 32.1913H5.74683C6.02421 26.377 8.35413 21.0918 12.026 17.0467L12.9652 17.9859C13.1941 18.2147 13.494 18.3292 13.7939 18.3292C14.0937 18.3292 14.3937 18.2147 14.6225 17.9859C15.0801 17.5283 15.0801 16.7863 14.6225 16.3286L13.6824 15.3885C17.7266 11.7103 23.0125 9.37605 28.828 9.0982V10.4447C28.828 11.0918 29.3526 11.6166 29.9998 11.6166C30.6469 11.6166 31.1717 11.0918 31.1717 10.4447V9.0982C36.9871 9.37605 42.2731 11.7104 46.3171 15.3886L45.3771 16.3287C44.9194 16.7863 44.9194 17.5283 45.3771 17.9861C45.6059 18.2148 45.9058 18.3293 46.2057 18.3293C46.5056 18.3293 46.8055 18.2148 47.0343 17.9861L47.9737 17.0467C51.6455 21.0918 53.9756 26.377 54.2528 32.1913H52.9184C52.2713 32.1913 51.7466 32.7161 51.7466 33.3632C51.7466 34.0103 52.2713 34.535 52.9184 34.535ZM27.8101 4.53504C27.8101 3.32684 28.7923 2.34375 29.9998 2.34375C31.2073 2.34375 32.1896 3.32684 32.1896 4.53504C32.1896 5.74348 31.2073 6.72645 29.9998 6.72645C28.7923 6.72645 27.8101 5.74348 27.8101 4.53504Z" fill="#3C3F7B"/>
<path d="M38.0961 32.1914H33.4944C33.1275 31.1004 32.2631 30.236 31.1721 29.8692V22.4028C31.1721 21.7557 30.6473 21.231 30.0002 21.231C29.353 21.231 28.8284 21.7557 28.8284 22.4028V29.8692C27.369 30.3599 26.315 31.7408 26.315 33.3633C26.315 35.3953 27.9682 37.0484 30.0002 37.0484C31.6228 37.0484 33.0037 35.9943 33.4944 34.5351H38.0961C38.7432 34.5351 39.268 34.0104 39.268 33.3633C39.268 32.7161 38.7432 32.1914 38.0961 32.1914ZM30.0002 34.7047C29.2605 34.7047 28.6588 34.1029 28.6588 33.3633C28.6588 32.6236 29.2605 32.0219 30.0002 32.0219C30.7399 32.0219 31.3417 32.6237 31.3417 33.3633C31.3417 34.1031 30.7399 34.7047 30.0002 34.7047Z" fill="#3C3F7B"/>
</svg>
