<svg width="60" height="60" viewBox="0 0 60 60" fill="none" xmlns="http://www.w3.org/2000/svg">
<g clip-path="url(#clip0)">
<path d="M5.56817 15.0832L19.1165 22.1364C19.2894 22.2264 19.4744 22.269 19.6566 22.269C20.0796 22.269 20.4881 22.0392 20.697 21.6381C20.9958 21.064 20.7727 20.3564 20.1987 20.0576L8.6469 14.0438L30.0016 2.92673L47.2872 11.9254V16.1621L40.1034 19.9019C39.5293 20.2008 39.3062 20.9084 39.605 21.4825C39.9038 22.0565 40.6112 22.2796 41.1855 21.9808L47.2871 18.8043V24.7373C47.2871 25.3845 47.8118 25.9092 48.4589 25.9092C49.106 25.9092 49.6307 25.3845 49.6307 24.7373V17.5842L54.4349 15.0832C54.8226 14.8814 55.0657 14.4808 55.0657 14.0438C55.0657 13.6068 54.8226 13.2062 54.4349 13.0044L30.5427 0.56633C30.2036 0.389737 29.7997 0.389854 29.4605 0.56633L5.56817 13.0044C5.18054 13.2062 4.9375 13.6068 4.9375 14.0438C4.9375 14.4808 5.18054 14.8814 5.56817 15.0832ZM49.6308 14.9421V13.1456L51.3563 14.0438L49.6308 14.9421Z" fill="#3C3F7B"/>
<path d="M56.1687 37.0338H1.17463C0.527436 37.0338 0 37.5581 0 38.2053C0 38.8224 0.474353 39.3279 1.07948 39.3735C1.10971 39.376 1.1403 39.3773 1.17112 39.3774C1.53344 39.4558 2.66238 41.1589 2.66238 44.5816C2.66238 48.0109 1.52899 49.714 1.17475 49.7857C0.527553 49.7857 0.00292955 50.3104 0.00292955 50.9576C0.00292955 51.6047 0.527553 52.1294 1.17475 52.1294H24.252V58.394C24.252 58.7986 24.4606 59.1745 24.8038 59.3885C25.147 59.6024 25.5764 59.6242 25.9395 59.4462L30.0014 57.4552L34.0632 59.4462C34.2264 59.5263 34.4028 59.5659 34.5788 59.5659C34.7946 59.5659 35.0099 59.5063 35.1989 59.3885C35.5421 59.1745 35.7507 58.7986 35.7507 58.394V52.1294H56.1686C58.6839 52.1294 59.9999 48.3323 59.9999 44.5816C60 40.8308 58.684 37.0338 56.1687 37.0338ZM30.0014 49.6054C27.2244 49.6054 24.965 47.3461 24.965 44.569C24.965 41.792 27.2243 39.5327 30.0014 39.5327C32.7785 39.5327 35.0378 41.7919 35.0378 44.569C35.0378 47.3461 32.7785 49.6054 30.0014 49.6054ZM4.02274 39.3774H24.7613C23.4391 40.7117 22.6215 42.5467 22.6215 44.569C22.6215 46.604 23.4494 48.4493 24.7861 49.7857H4.02274C4.67334 48.3649 5.00602 46.4675 5.00602 44.5816C5.00602 42.6956 4.67334 40.7981 4.02274 39.3774ZM33.4072 56.5146L30.5172 55.0979C30.1919 54.9385 29.8111 54.9385 29.4857 55.0979L26.5956 56.5146V52.1293H33.4071V56.5146H33.4072ZM56.1687 49.7856H35.2167C36.5534 48.4493 37.3813 46.604 37.3813 44.5689C37.3813 42.5466 36.5636 40.7116 35.2416 39.3773H56.1651C56.5273 39.4557 57.6564 41.1588 57.6564 44.5814C57.6564 48.0109 56.5231 49.7139 56.1687 49.7856Z" fill="#3C3F7B"/>
<path d="M43.1631 29.0834V17.1454C43.1631 14.7451 37.271 12.7993 30.0026 12.7993C22.7343 12.7993 16.8422 14.7451 16.8422 17.1454V29.0834" fill="#BBBFEA"/>
<path d="M30.0017 33.4296C37.27 33.4296 43.1621 31.4838 43.1621 29.0835C43.1621 26.6833 37.27 24.7375 30.0017 24.7375C22.7333 24.7375 16.8412 26.6833 16.8412 29.0835C16.8412 31.4838 22.7333 33.4296 30.0017 33.4296Z" fill="#BBBFEA"/>
</g>
<defs>
<clipPath id="clip0">
<rect width="60" height="60" fill="white"/>
</clipPath>
</defs>
</svg>
