<svg width="60" height="60" viewBox="0 0 60 60" fill="none" xmlns="http://www.w3.org/2000/svg">
<g clip-path="url(#clip0)">
<path d="M43.3419 33.6564C51.0753 33.6564 57.3445 27.3872 57.3445 19.6538C57.3445 11.9204 51.0753 5.65118 43.3419 5.65118C35.6084 5.65118 29.3392 11.9204 29.3392 19.6538C29.3392 27.3872 35.6084 33.6564 43.3419 33.6564Z" fill="#BBBFEA"/>
<path d="M59.6973 37.9572C57.009 34.9847 52.5788 34.3445 49.1554 36.4402L42.7579 40.4244C41.6606 37.0731 38.5407 34.7156 34.9453 34.6678L28.4411 34.5355C24.76 32.3749 20.0303 33.2156 17.3106 36.5619C16.6098 37.4242 16.0349 38.2385 15.5946 38.9915H13.9261V38.109C13.9261 37.4618 13.4014 36.9372 12.7542 36.9372H1.17188C0.524648 36.9372 0 37.4618 0 38.109V51.9515C0 52.5987 0.524648 53.1233 1.17188 53.1233H12.7542C13.4014 53.1233 13.9261 52.5987 13.9261 51.9515V50.4516L30.0146 53.984C31.1071 54.2288 32.2174 54.3492 33.3221 54.3492C36.1104 54.3492 38.8615 53.582 41.1916 52.1117C41.2818 52.0548 51.1898 45.338 59.4859 39.7132C59.7667 39.5228 59.9511 39.2202 59.9917 38.8834C60.0321 38.5466 59.9248 38.2088 59.6973 37.9572ZM11.5823 50.7796H2.34375V39.2809H11.5823V50.7796ZM39.9291 50.1368C37.1982 51.8556 33.7723 52.4242 30.5222 51.6958L13.9261 48.0519V41.3352H16.2896C16.7323 41.3352 17.1371 41.0858 17.3363 40.6904C17.7266 39.9155 18.3299 39.0238 19.1293 38.0401C21.1686 35.531 24.7534 34.9496 27.4679 36.6876C27.6497 36.8039 27.8602 36.8679 28.076 36.8722L34.9058 37.0111C37.483 37.0453 39.7173 38.7245 40.5179 41.1165H26.3441C25.6969 41.1165 25.1722 41.6412 25.1722 42.2884C25.1722 42.9356 25.6969 43.4603 26.3441 43.4603H41.9812C42.2003 43.4603 42.4148 43.399 42.6008 43.2831L50.3865 38.4344C52.4415 37.1766 55.0075 37.2941 56.9227 38.6192C50.5672 42.9281 40.3286 49.869 39.9291 50.1368Z" fill="#3C3F7B"/>
<path d="M7.99253 45.2396C7.3453 45.2396 6.82065 45.7643 6.82065 46.4115V47.2725C6.82065 47.9197 7.3453 48.4443 7.99253 48.4443C8.63975 48.4443 9.1644 47.9197 9.1644 47.2725V46.4115C9.1644 45.7643 8.63975 45.2396 7.99253 45.2396Z" fill="#3C3F7B"/>
<path d="M42.2603 27.0512V27.2165C42.2603 27.8638 42.785 28.3884 43.4322 28.3884C44.0795 28.3884 44.6041 27.8638 44.6041 27.2165V27.1406C47.1937 26.8127 48.3241 25.1284 48.5151 23.6245C48.7824 21.5199 47.4046 19.4971 45.1648 18.7053C44.9681 18.6357 44.7813 18.569 44.6042 18.5053V14.7398C45.068 14.8812 45.3893 15.1174 45.547 15.3421C45.9187 15.8719 46.6495 15.9999 47.1794 15.6281C47.7092 15.2564 47.8373 14.5255 47.4655 13.9957C46.9129 13.2083 45.9112 12.551 44.6041 12.3381V12.0905C44.6041 11.4432 44.0795 10.9186 43.4322 10.9186C42.785 10.9186 42.2603 11.4432 42.2603 12.0905V12.4271C42.0823 12.4666 41.9015 12.5139 41.718 12.569C40.2477 13.012 39.1377 14.4404 39.0188 16.0426C38.9015 17.6246 39.744 18.9995 41.2722 19.7202C41.4889 19.8224 41.8284 19.9635 42.2605 20.132V24.641C41.6575 24.4609 41.1038 24.159 40.7442 23.7124C40.3382 23.2084 39.6005 23.1289 39.0964 23.535C38.5924 23.941 38.5129 24.6787 38.919 25.1828C39.7727 26.2432 41.0332 26.8101 42.2603 27.0512ZM46.19 23.3293C46.0968 24.0634 45.5271 24.5722 44.6041 24.7658V21.0012C45.8282 21.5264 46.2882 22.5556 46.19 23.3293ZM41.3561 16.2163C41.3994 15.6335 41.778 15.0781 42.2603 14.8635V17.5952C41.4574 17.2117 41.3252 16.6342 41.3561 16.2163Z" fill="white"/>
</g>
<defs>
<clipPath id="clip0">
<rect width="60" height="60" fill="white"/>
</clipPath>
</defs>
</svg>
