<svg width="22" height="22" viewBox="0 0 22 22" fill="none" xmlns="http://www.w3.org/2000/svg">
<path d="M16.1561 5.15625C16.5119 5.15625 16.8007 4.8675 16.8007 4.51172V0.644531C16.8007 0.28875 16.5119 0 16.1561 0H12.2889C9.80105 0 7.77722 2.02383 7.77722 4.51172V7.73438H5.84363C5.48785 7.73438 5.1991 8.02312 5.1991 8.37891V12.2461C5.1991 12.6019 5.48785 12.8906 5.84363 12.8906H7.77722V21.3555C7.77722 21.7113 8.06597 22 8.42175 22H12.2889C12.6447 22 12.9335 21.7113 12.9335 21.3555V12.8906H15.5116C15.8266 12.8906 16.0955 12.6629 16.1475 12.3522L16.7921 8.48504C16.823 8.29813 16.7706 8.10691 16.6481 7.96211C16.5257 7.81773 16.3456 7.73438 16.1561 7.73438H12.9335V5.15625H16.1561ZM12.2889 9.02344H15.3952L14.9655 11.6016H12.2889C11.9332 11.6016 11.6444 11.8903 11.6444 12.2461V20.7109H9.06628V12.2461C9.06628 11.8903 8.77753 11.6016 8.42175 11.6016H6.48816V9.02344H8.42175C8.77753 9.02344 9.06628 8.73469 9.06628 8.37891V4.51172C9.06628 2.73496 10.5122 1.28906 12.2889 1.28906H15.5116V3.86719H12.2889C11.9332 3.86719 11.6444 4.15594 11.6444 4.51172V8.37891C11.6444 8.73469 11.9332 9.02344 12.2889 9.02344Z" fill="#00063D"/>
</svg>
