<svg width="22" height="22" viewBox="0 0 22 22" fill="none" xmlns="http://www.w3.org/2000/svg">
<path d="M16.1562 5.15625C16.512 5.15625 16.8008 4.8675 16.8008 4.51172V0.644531C16.8008 0.28875 16.512 0 16.1562 0H12.2891C9.80117 0 7.77734 2.02383 7.77734 4.51172V7.73438H5.84375C5.48797 7.73438 5.19922 8.02312 5.19922 8.37891V12.2461C5.19922 12.6019 5.48797 12.8906 5.84375 12.8906H7.77734V21.3555C7.77734 21.7113 8.06609 22 8.42187 22H12.2891C12.6448 22 12.9336 21.7113 12.9336 21.3555V12.8906H15.5117C15.8267 12.8906 16.0957 12.6629 16.1477 12.3522L16.7922 8.48504C16.8231 8.29813 16.7707 8.10691 16.6482 7.96211C16.5258 7.81773 16.3457 7.73438 16.1562 7.73438H12.9336V5.15625H16.1562ZM12.2891 9.02344H15.3953L14.9656 11.6016H12.2891C11.9333 11.6016 11.6445 11.8903 11.6445 12.2461V20.7109H9.06641V12.2461C9.06641 11.8903 8.77766 11.6016 8.42187 11.6016H6.48828V9.02344H8.42187C8.77766 9.02344 9.06641 8.73469 9.06641 8.37891V4.51172C9.06641 2.73496 10.5123 1.28906 12.2891 1.28906H15.5117V3.86719H12.2891C11.9333 3.86719 11.6445 4.15594 11.6445 4.51172V8.37891C11.6445 8.73469 11.9333 9.02344 12.2891 9.02344Z" fill="white"/>
</svg>
