<svg width="65" height="36" viewBox="0 0 65 36" fill="none" xmlns="http://www.w3.org/2000/svg">
<path fill-rule="evenodd" clip-rule="evenodd" d="M14.7759 0.421692C14.7369 0.876502 14.717 1.33665 14.717 1.80133C14.717 10.6772 21.97 17.898 30.9439 17.898C39.9175 17.898 47.217 10.6776 47.217 1.80133V0.469077H38.39V3.13358H44.467C43.774 9.88995 37.9714 15.2335 30.9439 15.2335C23.4663 15.2335 17.3645 9.19795 17.3645 1.80133C17.3645 1.33567 17.3887 0.875399 17.4359 0.421692H14.7759Z" fill="#00063D"/>
<path fill-rule="evenodd" clip-rule="evenodd" d="M47.817 5.30629C48.0266 4.27298 48.1367 3.20308 48.1367 2.10747V1.50232L48.3825 1.78045L49.8547 3.44596L52.799 6.77697L50.7711 8.64836L47.817 5.30629Z" fill="#00063D"/>
<path fill-rule="evenodd" clip-rule="evenodd" d="M37.0661 32.8421H35.2378V32.0333H35.2118C34.7796 32.6581 34.114 32.9705 33.215 32.9705C32.2986 32.9705 31.5509 32.6282 30.9717 31.9434C30.4184 31.3015 30.1418 30.5354 30.1418 29.6453C30.1418 28.7893 30.4357 28.0233 31.0235 27.3471C31.6114 26.6709 32.3505 26.3328 33.2409 26.3328C33.4916 26.3328 33.7725 26.3756 34.0837 26.4612C34.4814 26.5725 34.8401 26.8164 35.16 27.193H35.1859V23.1103H37.0661V32.8421ZM34.7839 30.8136C35.0865 30.4969 35.2378 30.1075 35.2378 29.6453C35.2378 29.1831 35.0865 28.7936 34.7839 28.4769C34.4814 28.1774 34.101 28.0276 33.6429 28.0276C33.1933 28.0276 32.8173 28.1774 32.5147 28.4769C32.2035 28.7851 32.0479 29.1745 32.0479 29.6453C32.0479 30.116 32.2035 30.5055 32.5147 30.8136C32.8087 31.1217 33.1847 31.2758 33.6429 31.2758C34.0924 31.2758 34.4727 31.1217 34.7839 30.8136Z" fill="#00063D"/>
<path d="M9.1374 30.1622C8.98425 30.6084 8.76091 31.0095 8.46737 31.3657C8.17345 31.7252 7.84064 32.0204 7.46892 32.2515C6.73413 32.7394 5.87832 32.9834 4.90148 32.9834C4.17533 32.9834 3.5097 32.855 2.90458 32.5982C2.29081 32.35 1.77646 32.0076 1.36152 31.5711C0.453841 30.6553 0 29.5212 0 28.1688C0 27.2958 0.224759 26.4783 0.674277 25.7166C1.1238 24.9719 1.72027 24.3899 2.46371 23.9705C3.20714 23.5511 4.02838 23.3414 4.92741 23.3414C6.07714 23.3414 7.02805 23.6324 7.78012 24.2144C8.48898 24.7537 8.95146 25.4127 9.16758 26.1916L7.26145 26.7694C7.15771 26.35 6.88973 25.9776 6.4575 25.6524C6.02527 25.3442 5.5066 25.1902 4.90148 25.1902C4.3828 25.1902 3.89438 25.3186 3.43622 25.5753C2.9867 25.8321 2.6366 26.1873 2.3859 26.641C2.11792 27.0946 1.98393 27.5996 1.98393 28.156C1.98393 28.7037 2.10496 29.2045 2.347 29.6581C2.5977 30.1117 2.9478 30.4712 3.39732 30.7366C3.84684 31.0105 4.34822 31.1474 4.90148 31.1474C5.51524 31.1474 6.05121 31.0019 6.50937 30.7109C6.73837 30.5567 6.92909 30.3719 7.07581 30.1622H9.1374Z" fill="#00063D"/>
<path d="M14.7284 28.2843V26.4612C14.5383 26.4184 14.3697 26.397 14.2227 26.397C13.4274 26.397 12.8699 26.7266 12.55 27.3856H12.537V26.4612H10.7476V32.8421H12.6019V30.0433C12.6019 29.4698 12.7359 29.0247 13.0038 28.708C13.2805 28.3913 13.6565 28.233 14.132 28.233C14.3049 28.233 14.5037 28.2501 14.7284 28.2843Z" fill="#00063D"/>
<path fill-rule="evenodd" clip-rule="evenodd" d="M17.3625 32.9705C16.7834 32.9705 16.282 32.7951 15.8584 32.4441C15.4348 32.0846 15.223 31.6224 15.223 31.0575V31.0062C15.223 30.1759 15.6552 29.611 16.5197 29.3115C16.9779 29.1403 17.4922 29.0547 18.0628 29.0547H18.6852C19.0223 29.0547 19.1909 28.9092 19.1909 28.6182C19.1909 28.3871 19.1001 28.1988 18.9186 28.0532C18.737 27.8992 18.4907 27.8221 18.1795 27.8221C17.8942 27.8221 17.6478 27.8992 17.4403 28.0532C17.2329 28.2073 17.0946 28.4213 17.0254 28.6952L15.3656 28.3229C15.4434 27.8778 15.6293 27.5055 15.9232 27.2059C16.2171 26.8892 16.5672 26.6624 16.9735 26.5254C17.3885 26.3799 17.8207 26.3072 18.2702 26.3072C19.0915 26.2986 19.7571 26.5211 20.2671 26.9748C20.7858 27.4284 21.0451 28.0661 21.0451 28.8878V31.815C21.0451 32.106 21.0624 32.4484 21.097 32.8421H19.3465C19.3205 32.6709 19.3076 32.4056 19.3076 32.0461H19.2816C18.8321 32.6624 18.1924 32.9705 17.3625 32.9705ZM17.9072 31.6096C18.2962 31.6096 18.6074 31.4855 18.8408 31.2373C19.0742 31.0062 19.1909 30.7194 19.1909 30.3771V30.223H18.0628C17.8293 30.223 17.6176 30.2872 17.4274 30.4156C17.2199 30.544 17.1162 30.7237 17.1162 30.9548C17.1162 31.1602 17.1896 31.3229 17.3366 31.4427C17.4836 31.554 17.6737 31.6096 17.9072 31.6096Z" fill="#00063D"/>
<path d="M26.9296 32.8421H28.8098V28.8749C28.8098 28.156 28.6109 27.5525 28.2133 27.0647C27.8243 26.5768 27.2451 26.3328 26.4757 26.3328C26.2769 26.3328 26.0046 26.3842 25.6588 26.4869C25.2179 26.6239 24.8808 26.8935 24.6474 27.2958H24.6344V26.4612H22.7672V32.8421H24.6474V29.2986C24.6474 28.9562 24.7468 28.661 24.9456 28.4127C25.1445 28.1816 25.4297 28.0661 25.8014 28.0661C26.1732 28.0661 26.4541 28.1774 26.6443 28.3999C26.8345 28.6139 26.9296 28.9134 26.9296 29.2986V32.8421Z" fill="#00063D"/>
<path d="M45.1535 26.0504H45.1794L47.2282 32.8421H49.3418L52.1426 23.4826H50.1328L48.2655 30.1845L46.2168 23.4826H44.1421L42.1063 30.1331L40.3039 23.4826H38.2162L40.9782 32.8421H43.0918L45.1535 26.0504Z" fill="#00063D"/>
<path fill-rule="evenodd" clip-rule="evenodd" d="M53.7987 32.9705C53.2196 32.9705 52.7182 32.7951 52.2946 32.4441C51.871 32.0846 51.6592 31.6224 51.6592 31.0575V31.0062C51.6592 30.1759 52.0914 29.611 52.9559 29.3115C53.4141 29.1403 53.9284 29.0547 54.499 29.0547H55.1214C55.4585 29.0547 55.6271 28.9092 55.6271 28.6182C55.6271 28.3871 55.5363 28.1988 55.3548 28.0532C55.1732 27.8992 54.9269 27.8221 54.6157 27.8221C54.3304 27.8221 54.084 27.8992 53.8765 28.0532C53.6691 28.2073 53.5308 28.4213 53.4616 28.6952L51.8018 28.3229C51.8796 27.8778 52.0655 27.5055 52.3594 27.2059C52.6533 26.8892 53.0034 26.6624 53.4097 26.5254C53.8247 26.3799 54.2569 26.3072 54.7064 26.3072C55.5277 26.2986 56.1933 26.5211 56.7033 26.9748C57.222 27.4284 57.4813 28.0661 57.4813 28.8878V31.815C57.4813 32.106 57.4986 32.4484 57.5332 32.8421H55.7827C55.7567 32.6709 55.7438 32.4056 55.7438 32.0461H55.7178C55.2683 32.6624 54.6286 32.9705 53.7987 32.9705ZM54.3433 31.6096C54.7324 31.6096 55.0436 31.4855 55.277 31.2373C55.5104 31.0062 55.6271 30.7194 55.6271 30.3771V30.223H54.499C54.2655 30.223 54.0538 30.2872 53.8636 30.4156C53.6561 30.544 53.5524 30.7237 53.5524 30.9548C53.5524 31.1602 53.6259 31.3229 53.7728 31.4427C53.9198 31.554 54.1099 31.6096 54.3433 31.6096Z" fill="#00063D"/>
<path d="M59.0741 35.9876H61.084L65 26.4612H63.055L61.6156 30.1075L60.0077 26.4612H57.9331L60.6431 32.1617L59.0741 35.9876Z" fill="#00063D"/>
<path d="M9.50465 27.7094H4.599L4.599 29.549H9.41617C9.47516 29.1939 9.50466 28.8173 9.50466 28.4193L9.50465 27.7094Z" fill="#00063D"/>
</svg>
