<svg width="65" height="45" viewBox="0 0 65 45" fill="none" xmlns="http://www.w3.org/2000/svg">
<path d="M3.97485 35.3462V41.2937H5.89748V37.5422H9.81965V41.2937H11.7423V32.0231H9.81965V35.6855H5.89748V33.8474L3.97485 35.3462Z" fill="#00063D"/>
<path fill-rule="evenodd" clip-rule="evenodd" d="M13.1853 38.1526C13.1853 37.5507 13.3433 36.9869 13.6595 36.4613C13.9671 35.9441 14.3901 35.5414 14.9284 35.2532C15.4839 34.9649 16.0692 34.8208 16.6844 34.8208C17.3253 34.8208 17.9064 34.9649 18.4276 35.2532C18.9574 35.5329 19.3761 35.9272 19.6837 36.4358C19.9914 36.9276 20.1452 37.4871 20.1452 38.1145C20.1452 38.7334 19.9914 39.2971 19.6837 39.8058C19.3676 40.323 18.9446 40.7214 18.4148 41.0012C17.885 41.2895 17.2997 41.4336 16.6588 41.4336C16.0265 41.4336 15.4411 41.2937 14.9028 41.0139C14.373 40.7172 13.9586 40.323 13.6595 39.8313C13.3433 39.3056 13.1853 38.7461 13.1853 38.1526ZM15.5437 36.97C15.2446 37.2836 15.0951 37.6694 15.0951 38.1272C15.0951 38.585 15.2446 38.9707 15.5437 39.2844C15.8513 39.5896 16.2273 39.7422 16.6716 39.7422C17.1074 39.7422 17.4791 39.5896 17.7868 39.2844C18.0858 38.9962 18.2354 38.6104 18.2354 38.1272C18.2354 37.6524 18.0858 37.2667 17.7868 36.97C17.4791 36.6647 17.1031 36.5121 16.6588 36.5121C16.223 36.5121 15.8513 36.6647 15.5437 36.97Z" fill="#00063D"/>
<path d="M27.6464 36.8937C27.8515 36.6732 28.1335 36.563 28.4924 36.563C29.1845 36.563 29.5306 36.9615 29.5306 37.7584V41.2937H31.3892V37.3515C31.3892 36.5884 31.2054 35.978 30.838 35.5202C30.4706 35.0624 29.9109 34.8335 29.1589 34.8335C28.7146 34.8335 28.3258 34.9141 27.9925 35.0751C27.6678 35.2277 27.3474 35.4821 27.0312 35.8381C26.6809 35.1684 26.0613 34.8335 25.1727 34.8335C24.8138 34.8335 24.4549 34.9183 24.096 35.0878C23.7627 35.2489 23.5021 35.4863 23.3141 35.8H23.3013V34.9734H21.4684V41.2937H23.3269V37.7838C23.3269 37.4023 23.4252 37.1056 23.6217 36.8937C23.8183 36.6732 24.1003 36.563 24.4677 36.563C25.1598 36.563 25.5059 36.97 25.5059 37.7838V41.2937H27.3516V37.7584C27.3516 37.3939 27.4499 37.1056 27.6464 36.8937Z" fill="#00063D"/>
<path fill-rule="evenodd" clip-rule="evenodd" d="M39.186 38.6486H34.5717C34.623 39.0131 34.7982 39.3141 35.0972 39.5515C35.3878 39.7804 35.7338 39.8948 36.1355 39.8948C36.4003 39.8948 36.6695 39.8143 36.943 39.6532C37.2164 39.4921 37.3958 39.2887 37.4813 39.0428L39.0194 39.5642C38.8143 40.1492 38.4469 40.607 37.9171 40.9376C37.3873 41.2683 36.802 41.4336 36.1611 41.4336C35.5288 41.4336 34.9434 41.2937 34.4051 41.0139C33.8838 40.7511 33.4609 40.3611 33.1361 39.844C32.82 39.3183 32.6619 38.7461 32.6619 38.1272C32.6619 37.5253 32.8157 36.97 33.1233 36.4613C33.4224 35.9611 33.8368 35.5584 34.3666 35.2532C34.8708 34.9649 35.4305 34.8208 36.0457 34.8208C36.9857 34.8208 37.7505 35.1133 38.3401 35.6983C38.9297 36.2832 39.2245 37.0463 39.2245 37.9873C39.2245 38.2756 39.2117 38.496 39.186 38.6486ZM34.6102 37.415H37.3531C37.3275 37.1607 37.2164 36.9233 37.0199 36.7029C36.7891 36.4486 36.4473 36.3214 35.9945 36.3214C35.6099 36.3214 35.2938 36.4401 35.046 36.6775C34.7896 36.9233 34.6444 37.1692 34.6102 37.415Z" fill="#00063D"/>
<path d="M45.4846 34.5665H45.5102L47.5354 41.2937H49.6246L52.3932 32.0231H50.4065L48.5608 38.6613L46.5356 32.0231H44.4848L42.4724 38.6104L40.6908 32.0231H38.6272L41.3573 41.2937H43.4466L45.4846 34.5665Z" fill="#00063D"/>
<path fill-rule="evenodd" clip-rule="evenodd" d="M53.979 41.4209C53.4065 41.4209 52.9108 41.2471 52.4921 40.8995C52.0734 40.5434 51.8641 40.0856 51.8641 39.5261V39.4752C51.8641 38.6528 52.2913 38.0933 53.1458 37.7966C53.5987 37.627 54.1072 37.5422 54.6711 37.5422H55.2864C55.6196 37.5422 55.7862 37.3981 55.7862 37.1098C55.7862 36.8809 55.6965 36.6944 55.5171 36.5503C55.3376 36.3977 55.0941 36.3214 54.7865 36.3214C54.5045 36.3214 54.261 36.3977 54.0559 36.5503C53.8508 36.7029 53.7141 36.9148 53.6457 37.1861L52.0051 36.8174C52.082 36.3765 52.2657 36.0077 52.5562 35.711C52.8468 35.3973 53.1928 35.1726 53.5944 35.037C54.0046 34.8929 54.4319 34.8208 54.8762 34.8208C55.688 34.8123 56.3459 35.0327 56.8501 35.4821C57.3628 35.9314 57.6191 36.563 57.6191 37.3769V40.2764C57.6191 40.5646 57.6362 40.9037 57.6704 41.2937H55.9401C55.9144 41.1241 55.9016 40.8613 55.9016 40.5053H55.876C55.4316 41.1157 54.7993 41.4209 53.979 41.4209ZM54.5173 40.0729C54.9018 40.0729 55.2095 39.95 55.4402 39.7041C55.6709 39.4752 55.7862 39.1912 55.7862 38.8521V38.6995H54.6711C54.4404 38.6995 54.2311 38.763 54.0431 38.8902C53.838 39.0174 53.7354 39.1954 53.7354 39.4243C53.7354 39.6278 53.8081 39.7889 53.9533 39.9076C54.0986 40.0178 54.2866 40.0729 54.5173 40.0729Z" fill="#00063D"/>
<path d="M59.1423 44.4094H61.129L64.9999 34.9734H63.0773L61.6546 38.585L60.0652 34.9734H58.0144L60.6933 40.6197L59.1423 44.4094Z" fill="#00063D"/>
<path d="M5.84988 33.3009L2.71788 35.7041L0.108894 35.6284L5.7876 31.1168L5.84988 33.3009Z" fill="#00063D"/>
<path fill-rule="evenodd" clip-rule="evenodd" d="M42.6443 13.5946H37.2064V10.8757H45.3632V26.8872H21.7991V12.0841H24.518V24.1764H42.6443V13.5946Z" fill="#00063D"/>
<path d="M33.6163 3.08934L24.4997 11.0163L21.4304 10.9811L33.5812 0L33.6163 3.08934Z" fill="#00063D"/>
</svg>
