<svg width="60" height="60" viewBox="0 0 60 60" fill="none" xmlns="http://www.w3.org/2000/svg">
<g clip-path="url(#clip0)">
<path d="M23.9283 41.0879H36.0716V53.0084H23.9283V41.0879Z" fill="#BBBFEA"/>
<path d="M33.385 18.1641H39.8561V24.6352H33.385V18.1641Z" fill="#BBBFEA"/>
<path d="M20.1438 18.1641H26.6149V24.6352H20.1438V18.1641Z" fill="#BBBFEA"/>
<path d="M50.1523 51.8351H46.8917V1.17339C46.8917 0.525325 46.3664 0 45.7184 0H14.2816C13.6335 0 13.1082 0.525325 13.1082 1.17339V51.8351H9.84761C7.5019 51.8351 5.59351 53.7435 5.59351 56.0891V58.8266C5.59351 59.4747 6.11883 60 6.76689 60H53.2329C53.881 60 54.4063 59.4747 54.4063 58.8266V56.0891C54.4063 53.7435 52.4981 51.8351 50.1523 51.8351ZM15.455 2.34677H44.545V51.8351H15.455V2.34677ZM52.0596 57.6532H7.94028V56.0891C7.94028 55.0374 8.79591 54.1819 9.84761 54.1819H50.1522C51.2039 54.1819 52.0596 55.0375 52.0596 56.0891V57.6532Z" fill="#3C3F7B"/>
<path d="M39.8562 5.53235H33.3852C32.7371 5.53235 32.2118 6.05767 32.2118 6.70573V13.1768C32.2118 13.8249 32.7371 14.3502 33.3852 14.3502H39.8563C40.5044 14.3502 41.0297 13.8249 41.0297 13.1768V6.70573C41.0296 6.05767 40.5042 5.53235 39.8562 5.53235ZM38.6828 12.0035H34.5586V7.87912H38.6829V12.0035H38.6828Z" fill="#3C3F7B"/>
<path d="M26.6148 5.53235H20.1437C19.4957 5.53235 18.9703 6.05767 18.9703 6.70573V13.1768C18.9703 13.8249 19.4957 14.3502 20.1437 14.3502H26.6148C27.2629 14.3502 27.7882 13.8249 27.7882 13.1768V6.70573C27.7882 6.05767 27.2629 5.53235 26.6148 5.53235ZM25.4414 12.0035H21.3171V7.87912H25.4414V12.0035Z" fill="#3C3F7B"/>
<path d="M39.8562 28.4491H33.3852C32.7371 28.4491 32.2118 28.9744 32.2118 29.6225V36.0936C32.2118 36.7417 32.7371 37.267 33.3852 37.267H39.8563C40.5044 37.267 41.0297 36.7417 41.0297 36.0936V29.6225C41.0296 28.9744 40.5042 28.4491 39.8562 28.4491ZM38.6828 34.9202H34.5586V30.7959H38.6829V34.9202H38.6828Z" fill="#3C3F7B"/>
<path d="M26.6148 28.4491H20.1437C19.4957 28.4491 18.9703 28.9744 18.9703 29.6225V36.0936C18.9703 36.7417 19.4957 37.267 20.1437 37.267H26.6148C27.2629 37.267 27.7882 36.7417 27.7882 36.0936V29.6225C27.7882 28.9744 27.2629 28.4491 26.6148 28.4491ZM25.4414 34.9202H21.3171V30.7959H25.4414V34.9202Z" fill="#3C3F7B"/>
</g>
<defs>
<clipPath id="clip0">
<rect width="60" height="60" fill="white"/>
</clipPath>
</defs>
</svg>
