<svg width="60" height="60" viewBox="0 0 60 60" fill="none" xmlns="http://www.w3.org/2000/svg">
<path d="M29.9999 53.0608C38.3671 53.0608 45.1744 46.2535 45.1744 37.8863C45.1744 29.5191 38.3671 22.7118 29.9999 22.7118C21.6327 22.7118 14.8254 29.5191 14.8254 37.8863C14.8254 46.2535 21.6327 53.0608 29.9999 53.0608ZM29.9999 25.0555C37.0749 25.0555 42.8307 30.8114 42.8307 37.8863C42.8307 44.9611 37.0749 50.717 29.9999 50.717C22.925 50.717 17.1692 44.9611 17.1692 37.8863C17.1692 30.8114 22.925 25.0555 29.9999 25.0555Z" fill="#3C3F7B"/>
<path d="M28.6572 45.2837V45.4492C28.6572 46.0963 29.1819 46.6211 29.8291 46.6211C30.4763 46.6211 31.001 46.0963 31.001 45.4492V45.3733C33.5906 45.0454 34.721 43.3611 34.912 41.8573C35.1792 39.7527 33.8015 37.7298 31.5616 36.938C31.3649 36.8685 31.1781 36.8018 31.001 36.738V32.9725C31.4648 33.1138 31.7861 33.35 31.9438 33.5747C32.3155 34.1045 33.0464 34.2327 33.5762 33.8608C34.106 33.4889 34.234 32.7582 33.8622 32.2284C33.3097 31.441 32.308 30.7837 31.0009 30.5707V30.3232C31.0009 29.6761 30.4762 29.1514 29.829 29.1514C29.1818 29.1514 28.6571 29.6761 28.6571 30.3232V30.6599C28.4791 30.6995 28.2983 30.7466 28.1149 30.802C26.6444 31.2448 25.5344 32.6732 25.4156 34.2755C25.2983 35.8577 26.1406 37.2324 27.669 37.9532C27.8858 38.0555 28.2253 38.1966 28.6571 38.365V42.874C28.0542 42.694 27.5005 42.3921 27.1408 41.9455C26.7349 41.4416 25.9971 41.3621 25.4931 41.768C24.989 42.1741 24.9096 42.9118 25.3155 43.4159C26.1695 44.4759 27.4299 45.0428 28.6572 45.2837ZM32.5868 41.562C32.4936 42.2961 31.9238 42.8049 31.0009 42.9985V39.2339C32.2249 39.7591 32.685 40.7883 32.5868 41.562ZM27.753 34.4489C27.7963 33.8662 28.1749 33.3109 28.6572 33.0961V35.8279C27.8542 35.4443 27.722 34.8668 27.753 34.4489Z" fill="#3C3F7B"/>
<path d="M50.1148 20.394C49.4675 20.394 48.9429 20.9188 48.9429 21.5659V57.6563H11.0569V21.5659C11.0569 20.9188 10.5322 20.394 9.88501 20.394C9.23778 20.394 8.71313 20.9188 8.71313 21.5659V58.8282C8.71313 59.4753 9.23778 60 9.88501 60H50.1148C50.762 60 51.2867 59.4753 51.2867 58.8282V21.5659C51.2867 20.9188 50.762 20.394 50.1148 20.394Z" fill="#3C3F7B"/>
<path d="M45.0155 8.12756H51.196V19.5008H45.0155V8.12756Z" fill="#BBBFEA"/>
<path d="M53.4174 30.1457L29.9999 10.7413L6.58249 30.1457L1.3053 23.7771L29.9999 0L58.6946 23.7771L53.4174 30.1457Z" fill="#BBBFEA"/>
</svg>
