<svg width="22" height="22" viewBox="0 0 22 22" fill="none" xmlns="http://www.w3.org/2000/svg">
<path d="M16.0448 0H5.95519C2.67144 0 0 2.67144 0 5.95519V16.0449C0 19.3285 2.67144 22 5.95519 22H16.0449C19.3285 22 22 19.3285 22 16.0449V5.95519C22 2.67144 19.3285 0 16.0448 0V0ZM20.7102 16.0449C20.7102 18.6173 18.6173 20.7102 16.0448 20.7102H5.95519C3.38261 20.7102 1.28973 18.6173 1.28973 16.0449V5.95519C1.28973 3.38261 3.38261 1.28973 5.95519 1.28973H16.0449C18.6173 1.28973 20.7102 3.38261 20.7102 5.95519V16.0449Z" fill="white"/>
<path d="M11.0001 4.98454C7.68308 4.98454 4.98462 7.683 4.98462 11C4.98462 14.317 7.68308 17.0154 11.0001 17.0154C14.317 17.0154 17.0155 14.317 17.0155 11C17.0155 7.683 14.317 4.98454 11.0001 4.98454ZM11.0001 15.7257C8.39442 15.7257 6.27435 13.6058 6.27435 11C6.27435 8.39433 8.39442 6.27427 11.0001 6.27427C13.6059 6.27427 15.7258 8.39433 15.7258 11C15.7258 13.6058 13.6059 15.7257 11.0001 15.7257Z" fill="white"/>
<path d="M17.1593 2.84818C16.1791 2.84818 15.3818 3.64562 15.3818 4.62568C15.3818 5.6059 16.1791 6.40334 17.1593 6.40334C18.1396 6.40334 18.937 5.6059 18.937 4.62568C18.937 3.64545 18.1396 2.84818 17.1593 2.84818ZM17.1593 5.11344C16.8904 5.11344 16.6716 4.89457 16.6716 4.62568C16.6716 4.35662 16.8904 4.13791 17.1593 4.13791C17.4284 4.13791 17.6473 4.35662 17.6473 4.62568C17.6473 4.89457 17.4284 5.11344 17.1593 5.11344Z" fill="white"/>
</svg>
