<svg width="22" height="22" viewBox="0 0 22 22" fill="none" xmlns="http://www.w3.org/2000/svg">
<path d="M16.0448 0H5.95519C2.67144 0 0 2.67144 0 5.95519V16.0449C0 19.3285 2.67144 22 5.95519 22H16.0449C19.3285 22 22 19.3285 22 16.0449V5.95519C22 2.67144 19.3285 0 16.0448 0V0ZM20.7102 16.0449C20.7102 18.6173 18.6173 20.7102 16.0448 20.7102H5.95519C3.38261 20.7102 1.28973 18.6173 1.28973 16.0449V5.95519C1.28973 3.38261 3.38261 1.28973 5.95519 1.28973H16.0449C18.6173 1.28973 20.7102 3.38261 20.7102 5.95519V16.0449Z" fill="#00063D"/>
<path d="M10.9999 4.98456C7.68296 4.98456 4.9845 7.68302 4.9845 11C4.9845 14.317 7.68296 17.0154 10.9999 17.0154C14.3169 17.0154 17.0154 14.317 17.0154 11C17.0154 7.68302 14.3169 4.98456 10.9999 4.98456ZM10.9999 15.7257C8.3943 15.7257 6.27423 13.6058 6.27423 11C6.27423 8.39436 8.3943 6.27429 10.9999 6.27429C13.6058 6.27429 15.7257 8.39436 15.7257 11C15.7257 13.6058 13.6058 15.7257 10.9999 15.7257Z" fill="#00063D"/>
<path d="M17.1593 2.84821C16.1791 2.84821 15.3818 3.64564 15.3818 4.6257C15.3818 5.60592 16.1791 6.40336 17.1593 6.40336C18.1396 6.40336 18.937 5.60592 18.937 4.6257C18.937 3.64548 18.1396 2.84821 17.1593 2.84821ZM17.1593 5.11346C16.8904 5.11346 16.6716 4.89459 16.6716 4.6257C16.6716 4.35664 16.8904 4.13794 17.1593 4.13794C17.4284 4.13794 17.6473 4.35664 17.6473 4.6257C17.6473 4.89459 17.4284 5.11346 17.1593 5.11346Z" fill="#00063D"/>
</svg>
