<svg width="60" height="60" viewBox="0 0 60 60" fill="none" xmlns="http://www.w3.org/2000/svg">
<g clip-path="url(#clip0)">
<path d="M16.8458 34.488H11.5325C10.8853 34.488 10.3607 33.9634 10.3607 33.3161V24.5795C10.3607 23.9322 10.8853 23.4076 11.5325 23.4076H16.8458C17.493 23.4076 18.0177 23.9322 18.0177 24.5795V33.3161C18.0177 33.9634 17.493 34.488 16.8458 34.488ZM12.7044 32.1443H15.6739V25.7513H12.7044V32.1443Z" fill="#3C3F7B"/>
<path d="M48.4674 34.4878H43.1541C42.5069 34.4878 41.9823 33.9632 41.9823 33.3159V16.6876C41.9823 16.0404 42.5069 15.5157 43.1541 15.5157H48.4674C49.1147 15.5157 49.6393 16.0404 49.6393 16.6876V33.3159C49.6393 33.9632 49.1147 34.4878 48.4674 34.4878ZM44.326 32.1441H47.2956V17.8595H44.326V32.1441Z" fill="#3C3F7B"/>
<path d="M27.3864 34.4875H22.0732C21.4259 34.4875 20.9013 33.9629 20.9013 33.3156V20.45C20.9013 19.8027 21.4259 19.2781 22.0732 19.2781H27.3864C28.0337 19.2781 28.5583 19.8027 28.5583 20.45V33.3156C28.5583 33.9629 28.0337 34.4875 27.3864 34.4875ZM23.245 32.1438H26.2146V21.6218H23.245V32.1438Z" fill="#3C3F7B"/>
<path d="M37.9269 34.4882H32.6136C31.9664 34.4882 31.4418 33.9635 31.4418 33.3163V26.4556C31.4418 25.8083 31.9664 25.2837 32.6136 25.2837H37.9269C38.5742 25.2837 39.0988 25.8083 39.0988 26.4556V33.3163C39.0988 33.9635 38.5742 34.4882 37.9269 34.4882ZM33.7855 32.1444H36.7551V27.6274H33.7855V32.1444Z" fill="#3C3F7B"/>
<path d="M3.53116 32.1675H56.4687V39.3176H3.53116V32.1675Z" fill="#BBBFEA"/>
<path d="M58.8281 43.6648H57.6405V8.86434C57.6405 7.14742 56.2437 5.75055 54.5268 5.75055H5.47324C3.75633 5.75055 2.35945 7.14742 2.35945 8.86434V43.6649H1.17188C0.524648 43.6649 0 44.1896 0 44.8368V49.8224C0 52.2634 1.98586 54.2492 4.42676 54.2492H55.5731C58.0141 54.2492 59.9999 52.2633 59.9999 49.8224V44.8368C60 44.1895 59.4754 43.6648 58.8281 43.6648ZM4.7032 8.86434C4.7032 8.43965 5.04867 8.0943 5.47324 8.0943H54.5268C54.9514 8.0943 55.2968 8.43977 55.2968 8.86434V43.6649H4.7032V8.86434ZM57.6562 49.8223C57.6562 50.9709 56.7218 51.9053 55.5732 51.9053H4.42676C3.2782 51.9053 2.34375 50.9709 2.34375 49.8223V46.0086H57.6562V49.8223Z" fill="#3C3F7B"/>
<path d="M33.4707 47.7849H26.5292C25.882 47.7849 25.3573 48.3096 25.3573 48.9568C25.3573 49.604 25.882 50.1287 26.5292 50.1287H33.4707C34.1179 50.1287 34.6426 49.604 34.6426 48.9568C34.6426 48.3096 34.1179 47.7849 33.4707 47.7849Z" fill="#3C3F7B"/>
</g>
<defs>
<clipPath id="clip0">
<rect width="60" height="60" fill="white"/>
</clipPath>
</defs>
</svg>
