<svg width="65" height="45" viewBox="0 0 65 45" fill="none" xmlns="http://www.w3.org/2000/svg">
<path d="M3.97485 35.3461V41.2936H5.89748V37.5421H9.81965V41.2936H11.7423V32.0229H9.81965V35.6854H5.89748V33.8473L3.97485 35.3461Z" fill="#3C3F7B"/>
<path fill-rule="evenodd" clip-rule="evenodd" d="M13.1853 38.1525C13.1853 37.5506 13.3433 36.9868 13.6595 36.4612C13.9671 35.944 14.3901 35.5413 14.9284 35.253C15.4839 34.9648 16.0692 34.8207 16.6844 34.8207C17.3253 34.8207 17.9064 34.9648 18.4276 35.253C18.9574 35.5328 19.3761 35.927 19.6837 36.4357C19.9914 36.9274 20.1452 37.487 20.1452 38.1144C20.1452 38.7332 19.9914 39.297 19.6837 39.8057C19.3676 40.3229 18.9446 40.7213 18.4148 41.0011C17.885 41.2893 17.2997 41.4335 16.6588 41.4335C16.0265 41.4335 15.4411 41.2936 14.9028 41.0138C14.373 40.7171 13.9586 40.3229 13.6595 39.8311C13.3433 39.3055 13.1853 38.746 13.1853 38.1525ZM15.5437 36.9698C15.2446 37.2835 15.0951 37.6693 15.0951 38.1271C15.0951 38.5849 15.2446 38.9706 15.5437 39.2843C15.8513 39.5895 16.2273 39.7421 16.6716 39.7421C17.1074 39.7421 17.4791 39.5895 17.7868 39.2843C18.0858 38.9961 18.2354 38.6103 18.2354 38.1271C18.2354 37.6523 18.0858 37.2666 17.7868 36.9698C17.4791 36.6646 17.1031 36.512 16.6588 36.512C16.223 36.512 15.8513 36.6646 15.5437 36.9698Z" fill="#3C3F7B"/>
<path d="M27.6464 36.8935C27.8515 36.6731 28.1335 36.5629 28.4924 36.5629C29.1845 36.5629 29.5306 36.9614 29.5306 37.7583V41.2936H31.3892V37.3513C31.3892 36.5883 31.2054 35.9779 30.838 35.5201C30.4706 35.0623 29.9109 34.8334 29.1589 34.8334C28.7146 34.8334 28.3258 34.9139 27.9925 35.075C27.6678 35.2276 27.3474 35.482 27.0312 35.838C26.6809 35.1683 26.0613 34.8334 25.1727 34.8334C24.8138 34.8334 24.4549 34.9182 24.096 35.0877C23.7627 35.2488 23.5021 35.4862 23.3141 35.7999H23.3013V34.9733H21.4684V41.2936H23.3269V37.7837C23.3269 37.4022 23.4252 37.1055 23.6217 36.8935C23.8183 36.6731 24.1003 36.5629 24.4677 36.5629C25.1598 36.5629 25.5059 36.9698 25.5059 37.7837V41.2936H27.3516V37.7583C27.3516 37.3937 27.4499 37.1055 27.6464 36.8935Z" fill="#3C3F7B"/>
<path fill-rule="evenodd" clip-rule="evenodd" d="M39.186 38.6485H34.5717C34.623 39.013 34.7982 39.314 35.0972 39.5514C35.3878 39.7803 35.7338 39.8947 36.1355 39.8947C36.4003 39.8947 36.6695 39.8142 36.943 39.6531C37.2164 39.492 37.3958 39.2885 37.4813 39.0427L39.0194 39.5641C38.8143 40.1491 38.4469 40.6069 37.9171 40.9375C37.3873 41.2682 36.802 41.4335 36.1611 41.4335C35.5288 41.4335 34.9434 41.2936 34.4051 41.0138C33.8838 40.751 33.4609 40.361 33.1361 39.8439C32.82 39.3182 32.6619 38.746 32.6619 38.1271C32.6619 37.5251 32.8157 36.9698 33.1233 36.4612C33.4224 35.961 33.8368 35.5583 34.3666 35.253C34.8708 34.9648 35.4305 34.8207 36.0457 34.8207C36.9857 34.8207 37.7505 35.1132 38.3401 35.6981C38.9297 36.2831 39.2245 37.0461 39.2245 37.9872C39.2245 38.2754 39.2117 38.4959 39.186 38.6485ZM34.6102 37.4149H37.3531C37.3275 37.1606 37.2164 36.9232 37.0199 36.7028C36.7891 36.4484 36.4473 36.3213 35.9945 36.3213C35.6099 36.3213 35.2938 36.44 35.046 36.6773C34.7896 36.9232 34.6444 37.1691 34.6102 37.4149Z" fill="#3C3F7B"/>
<path d="M45.4846 34.5663H45.5102L47.5354 41.2936H49.6246L52.3932 32.0229H50.4065L48.5608 38.6612L46.5356 32.0229H44.4848L42.4724 38.6103L40.6908 32.0229H38.6272L41.3573 41.2936H43.4466L45.4846 34.5663Z" fill="#3C3F7B"/>
<path fill-rule="evenodd" clip-rule="evenodd" d="M53.979 41.4208C53.4065 41.4208 52.9108 41.247 52.4921 40.8994C52.0734 40.5433 51.8641 40.0855 51.8641 39.5259V39.4751C51.8641 38.6527 52.2913 38.0932 53.1458 37.7964C53.5987 37.6269 54.1072 37.5421 54.6711 37.5421H55.2864C55.6196 37.5421 55.7862 37.398 55.7862 37.1097C55.7862 36.8808 55.6965 36.6943 55.5171 36.5502C55.3376 36.3976 55.0941 36.3213 54.7865 36.3213C54.5045 36.3213 54.261 36.3976 54.0559 36.5502C53.8508 36.7028 53.7141 36.9147 53.6457 37.186L52.0051 36.8172C52.082 36.3764 52.2657 36.0076 52.5562 35.7109C52.8468 35.3972 53.1928 35.1725 53.5944 35.0369C54.0046 34.8927 54.4319 34.8207 54.8762 34.8207C55.688 34.8122 56.3459 35.0326 56.8501 35.482C57.3628 35.9313 57.6191 36.5629 57.6191 37.3768V40.2762C57.6191 40.5645 57.6362 40.9036 57.6704 41.2936H55.9401C55.9144 41.124 55.9016 40.8612 55.9016 40.5051H55.876C55.4316 41.1155 54.7993 41.4208 53.979 41.4208ZM54.5173 40.0728C54.9018 40.0728 55.2095 39.9498 55.4402 39.704C55.6709 39.4751 55.7862 39.1911 55.7862 38.8519V38.6993H54.6711C54.4404 38.6993 54.2311 38.7629 54.0431 38.8901C53.838 39.0173 53.7354 39.1953 53.7354 39.4242C53.7354 39.6277 53.8081 39.7887 53.9533 39.9074C54.0986 40.0177 54.2866 40.0728 54.5173 40.0728Z" fill="#3C3F7B"/>
<path d="M59.1423 44.4092H61.129L64.9999 34.9733H63.0773L61.6546 38.5849L60.0652 34.9733H58.0144L60.6933 40.6196L59.1423 44.4092Z" fill="#3C3F7B"/>
<path d="M5.84988 33.3008L2.71788 35.704L0.108894 35.6283L5.7876 31.1167L5.84988 33.3008Z" fill="#FFCE0A"/>
<path fill-rule="evenodd" clip-rule="evenodd" d="M42.6443 13.5947H37.2064V10.8757H45.3632V26.8873H21.7991V12.0842H24.518V24.1764H42.6443V13.5947Z" fill="#3C3F7B"/>
<path d="M33.6162 3.08934L24.4996 11.0163L21.4303 10.9811L33.5811 0L33.6162 3.08934Z" fill="#FFCE0A"/>
</svg>
