<svg width="60" height="60" viewBox="0 0 60 60" fill="none" xmlns="http://www.w3.org/2000/svg">
<path fill-rule="evenodd" clip-rule="evenodd" d="M48.8507 46.9919V25.2533C46.1803 27.1884 42.339 25.2101 42.3549 21.8956C42.3549 24.1607 40.5017 26.0139 38.2366 26.0139C35.9733 26.0139 34.1212 24.1635 34.1183 21.9008C34.1155 24.1635 32.2635 26.0139 30.0001 26.0139C27.735 26.0139 25.8818 24.1607 25.8818 21.8956C25.8818 24.1607 24.0286 26.0139 21.7635 26.0139C19.4984 26.0139 17.6452 24.1607 17.6452 21.8956C17.6607 25.2114 13.8191 27.1877 11.1494 25.2533V46.9919H48.8507Z" fill="#BBBFEA"/>
<path d="M59.9999 21.8956V17.7773C59.9999 17.5948 59.9573 17.4149 59.8754 17.2518L54.6093 6.75372V3.51561C54.6093 1.5771 53.0322 0 51.0937 0H8.90633C6.96782 0 5.39072 1.5771 5.39072 3.51561V6.75372L0.124453 17.2518C0.0426561 17.4149 0 17.5948 0 17.7773V21.8956C0 24.4099 1.76331 26.5202 4.1183 27.0549V51.7969H3.51573C1.57722 51.7969 0.000117187 53.374 0.000117187 55.3125V58.8281C0.000117187 59.4754 0.524764 60 1.17199 60H58.828C59.4751 60 59.9999 59.4754 59.9999 58.8281V55.3125C59.9999 53.374 58.4228 51.7969 56.4843 51.7969H55.8816V27.0549C58.2366 26.5202 59.9999 24.4101 59.9999 21.8956ZM54.7098 24.842C53.0862 24.842 51.7644 23.5211 51.7634 21.8976C51.7634 21.8946 51.7633 21.8918 51.7633 21.8889V18.9491H57.6561V21.8956C57.6561 23.5203 56.3344 24.842 54.7098 24.842ZM7.28575 8.20309H11.5987L8.58395 16.6054H3.07089L7.28575 8.20309ZM52.7142 8.20309L56.9291 16.6054H51.4159L48.4012 8.20309H52.7142ZM45.9113 8.20309L48.9259 16.6054H43.3013L41.4925 8.20309H45.9113ZM39.095 8.20309L40.9039 16.6054H35.2091L34.6062 8.20309H39.095ZM32.2563 8.20309L32.8592 16.6054H27.1408L27.7437 8.20309H32.2563ZM24.791 16.6054H19.0962L20.905 8.20309H25.394L24.791 16.6054ZM16.6988 16.6054H11.0741L14.0888 8.20309H18.5076L16.6988 16.6054ZM10.5805 18.9491H16.4733V21.8956C16.311 25.8054 10.7414 25.8024 10.5805 21.8956V18.9491ZM18.8171 18.9491H24.7099V21.8956C24.5476 25.8054 18.978 25.8024 18.8171 21.8956V18.9491ZM27.0537 18.9491H32.9463V21.8956C32.9463 21.8979 32.9464 21.9003 32.9464 21.9026C32.7751 25.8072 27.2141 25.7983 27.0537 21.8956V18.9491ZM35.2901 18.9491H41.1829V21.8956C41.1829 21.8976 41.183 21.8996 41.183 21.9016C41.0137 25.8049 35.4558 25.7997 35.2902 21.8992C35.2902 21.8965 35.2901 21.8937 35.2901 21.891V18.9491ZM43.5267 18.9491H49.4195V21.8956C49.4195 21.8977 49.4197 21.8999 49.4197 21.902C49.2481 25.8126 43.6768 25.796 43.5267 21.8866V18.9491ZM7.73446 3.51561C7.73446 2.86944 8.26016 2.34374 8.90633 2.34374H51.0937C51.7398 2.34374 52.2655 2.86944 52.2655 3.51561V5.85935H7.73446V3.51561ZM2.34374 21.8956V18.9491H8.23661V21.8956C8.0743 25.8054 2.50464 25.8024 2.34374 21.8956ZM57.6561 55.3124V57.6561H2.34386V55.3124C2.34386 54.6662 2.86956 54.1405 3.51573 54.1405H56.4843C57.1304 54.1406 57.6561 54.6663 57.6561 55.3124ZM6.46205 51.7969V27.055C7.64177 26.7872 8.67301 26.1239 9.4086 25.2126C11.4588 27.8283 15.596 27.8272 17.6452 25.2126C19.6954 27.8283 23.8326 27.8272 25.8818 25.2126C27.9325 27.8285 32.0686 27.8272 34.1183 25.2117C36.1693 27.8283 40.3052 27.8275 42.3549 25.2126C44.4054 27.8285 48.5418 27.8272 50.5915 25.2121C51.327 26.1236 52.3583 26.787 53.538 27.0549V51.7968H6.46205V51.7969Z" fill="#3C3F7B"/>
<path d="M37.0721 31.2266H35.087C34.5566 31.2266 34.0923 31.5828 33.955 32.0952L31.9882 39.4355H25.2712L24.4555 36.3914H29.9447C31.4995 36.3294 31.4983 34.109 29.9447 34.0476H22.9283C22.564 34.0476 22.2204 34.2171 21.9985 34.5062C21.7767 34.7952 21.702 35.171 21.7963 35.5229L23.24 40.9108C23.3772 41.4232 23.8415 41.7794 24.3719 41.7794H32.8874C33.4177 41.7794 33.8819 41.4232 34.0193 40.9108L35.9861 33.5704H37.0722C38.627 33.5083 38.6258 31.2879 37.0721 31.2266Z" fill="#3C3F7B"/>
</svg>
