<svg width="65" height="44" viewBox="0 0 65 44" fill="none" xmlns="http://www.w3.org/2000/svg">
<path fill-rule="evenodd" clip-rule="evenodd" d="M7.33874 33.7292C7.33874 34.8256 6.98862 35.6434 6.28837 36.1825C5.61577 36.7216 4.74047 36.9911 3.66246 36.9911H2.08691V40.5135H0V30.522H3.73156C4.79114 30.522 5.64802 30.7916 6.30219 31.3307C6.99322 31.888 7.33874 32.6875 7.33874 33.7292ZM5.23801 33.7703C5.23801 33.4779 5.15969 33.2312 5.00306 33.0302C4.84642 32.82 4.63911 32.6738 4.38113 32.5916C4.13236 32.5094 3.85595 32.4682 3.55189 32.4682H2.08691V35.0723H3.56571C4.0264 35.0723 4.41798 34.9672 4.74047 34.7571C5.07216 34.5378 5.23801 34.2089 5.23801 33.7703Z" fill="white"/>
<path d="M12.9437 33.7018V35.648C12.7042 35.6114 12.4923 35.5931 12.308 35.5931C11.8012 35.5931 11.4004 35.7622 11.1056 36.1002C10.82 36.4383 10.6772 36.9134 10.6772 37.5256V40.5135H8.70082V33.7018H10.6081V34.6886H10.6219C10.9628 33.985 11.5571 33.6332 12.4047 33.6332C12.5614 33.6332 12.741 33.6561 12.9437 33.7018Z" fill="white"/>
<path fill-rule="evenodd" clip-rule="evenodd" d="M13.4294 37.1282C13.4294 36.4794 13.5999 35.8718 13.9408 35.3053C14.2725 34.748 14.7285 34.3139 15.309 34.0033C15.9079 33.6926 16.539 33.5373 17.2024 33.5373C17.8935 33.5373 18.52 33.6926 19.082 34.0033C19.6533 34.3048 20.1048 34.7297 20.4365 35.2779C20.7682 35.8079 20.934 36.4109 20.934 37.0871C20.934 37.7541 20.7682 38.3617 20.4365 38.9099C20.0955 39.4673 19.6395 39.8967 19.0682 40.1982C18.497 40.5089 17.8658 40.6642 17.1748 40.6642C16.493 40.6642 15.8618 40.5135 15.2814 40.2119C14.7101 39.8921 14.2633 39.4673 13.9408 38.9373C13.5999 38.3708 13.4294 37.7678 13.4294 37.1282ZM15.9724 35.8535C15.6499 36.1916 15.4887 36.6074 15.4887 37.1008C15.4887 37.5942 15.6499 38.0099 15.9724 38.348C16.3041 38.6769 16.7095 38.8414 17.1886 38.8414C17.6585 38.8414 18.0593 38.6769 18.391 38.348C18.7135 38.0373 18.8747 37.6216 18.8747 37.1008C18.8747 36.5891 18.7135 36.1733 18.391 35.8535C18.0593 35.5246 17.6539 35.3601 17.1748 35.3601C16.7049 35.3601 16.3041 35.5246 15.9724 35.8535Z" fill="white"/>
<path d="M29.857 40.5135H27.853V35.336H29.857V40.5135Z" fill="white"/>
<path d="M26.9192 35.336V33.7018H24.9231V32.9205C24.9231 32.1713 25.3285 31.7967 26.1393 31.7967C26.4157 31.7967 26.623 31.8195 26.7612 31.8652V30.2342C26.4295 30.1337 26.0471 30.0835 25.6141 30.0835C24.9784 30.0835 24.4486 30.2388 24.0247 30.5495C23.6009 30.851 23.3061 31.2165 23.1402 31.6459C22.9836 32.0662 22.9099 32.5276 22.9191 33.0302V33.7018H21.6667V35.336H22.9191V40.5135H24.9231V35.336H26.9192Z" fill="white"/>
<path d="M28.8343 32.5642C28.5026 32.5642 28.2124 32.4408 27.9636 32.1941C27.724 31.9383 27.6043 31.6505 27.6043 31.3307C27.6043 30.9926 27.724 30.6957 27.9636 30.4398C28.2216 30.2022 28.5118 30.0835 28.8343 30.0835C29.1752 30.0835 29.4747 30.2022 29.7326 30.4398C29.9814 30.6865 30.1058 30.9835 30.1058 31.3307C30.1058 31.6596 29.9814 31.9474 29.7326 32.1941C29.4839 32.4408 29.1844 32.5642 28.8343 32.5642Z" fill="white"/>
<path d="M36.1652 35.4287H34.4652V38.0053C34.4652 38.5901 34.7923 38.8825 35.4465 38.8825C35.6308 38.8825 35.8657 38.8642 36.1513 38.8277V40.4449C35.8196 40.5546 35.4188 40.6094 34.9489 40.6094C33.2905 40.6094 32.4612 39.7779 32.4612 38.115V35.4287H31.1345V33.7018H32.5027V31.5637H34.4652V33.7018H36.1652V35.4287Z" fill="white"/>
<path d="M43.8745 33.2632H43.8468L41.6493 40.5135H39.3966L36.4528 30.522H38.6779L40.599 37.6216L42.7688 30.522H44.9801L47.1638 37.6764L49.1539 30.522H51.2961L48.3109 40.5135H46.0581L43.8745 33.2632Z" fill="white"/>
<path fill-rule="evenodd" clip-rule="evenodd" d="M53.0613 40.6505C52.444 40.6505 51.9096 40.4632 51.4581 40.0886C51.0066 39.7048 50.7809 39.2114 50.7809 38.6084V38.5536C50.7809 37.6673 51.2416 37.0642 52.1629 36.7444C52.6513 36.5617 53.1995 36.4703 53.8076 36.4703H54.471C54.8303 36.4703 55.01 36.315 55.01 36.0043C55.01 35.7576 54.9132 35.5566 54.7197 35.4013C54.5263 35.2368 54.2637 35.1546 53.932 35.1546C53.6279 35.1546 53.3653 35.2368 53.1442 35.4013C52.9231 35.5657 52.7756 35.7942 52.7019 36.0865L50.9329 35.6891C51.0158 35.2139 51.2139 34.8165 51.5272 34.4967C51.8405 34.1586 52.2136 33.9165 52.6467 33.7703C53.0889 33.615 53.5496 33.5373 54.0287 33.5373C54.904 33.5282 55.6135 33.7657 56.1571 34.25C56.7099 34.7342 56.9863 35.415 56.9863 36.2921V39.417C56.9863 39.7277 57.0047 40.0932 57.0416 40.5135H55.1758C55.1482 40.3307 55.1344 40.0475 55.1344 39.6637H55.1067C54.6276 40.3216 53.9458 40.6505 53.0613 40.6505ZM53.6417 39.1977C54.0564 39.1977 54.3881 39.0652 54.6368 38.8003C54.8856 38.5536 55.01 38.2475 55.01 37.882V37.7175H53.8076C53.5588 37.7175 53.3331 37.786 53.1304 37.9231C52.9092 38.0602 52.7987 38.252 52.7987 38.4987C52.7987 38.718 52.877 38.8916 53.0336 39.0195C53.1903 39.1383 53.393 39.1977 53.6417 39.1977Z" fill="white"/>
<path d="M60.8262 43.8713H58.684L60.3563 39.7871L57.4678 33.7018H59.6791L61.3928 37.5942L62.9269 33.7018H65L60.8262 43.8713Z" fill="white"/>
<path d="M27.0169 33.6946H21.6667V35.3361H29.8738L27.0169 33.6946Z" fill="white"/>
<path fill-rule="evenodd" clip-rule="evenodd" d="M33.1555 3.16429L36.4378 3.16427V6.12632L29.5449 6.11965V10.0582H36.4378V17.1767H36.4393L36.4378 20.235H29.5449L26.6595 17.2804H33.4837V13.0128H26.5908V3.1576L30.2014 3.16427V0.537975L33.1555 0.537994V3.16429Z" fill="white"/>
<path d="M26.5908 23.7236V17.2804H29.5454V27.1289L26.5908 23.7236Z" fill="white"/>
</svg>
