<svg width="60" height="60" viewBox="0 0 60 60" fill="none" xmlns="http://www.w3.org/2000/svg">
<g clip-path="url(#clip0)">
<path d="M43.0784 1.58466H16.922V23.0076H27.071L30.0001 25.9367L32.9292 23.0076H43.0784V1.58466Z" fill="#BBBFEA"/>
<path d="M27.5889 16.0965C27.1815 15.5934 26.4436 15.516 25.9407 15.9231C25.4378 16.3305 25.3602 17.0683 25.7674 17.5713C26.5159 18.4955 27.6055 19.0042 28.678 19.2333V19.2597C28.678 19.9069 29.2026 20.4316 29.8499 20.4316C30.4771 20.4316 30.9891 19.9389 31.0202 19.3196C32.9171 19.0305 34.2537 17.8065 34.466 16.1269C34.7076 14.2151 33.4554 12.38 31.4207 11.6645C31.282 11.6158 31.1491 11.5687 31.0217 11.5232V8.5258C31.2996 8.6383 31.4952 8.79217 31.5999 8.94064C31.9728 9.46928 32.7041 9.59584 33.2331 9.22271C33.7619 8.84959 33.8883 8.11846 33.5151 7.58947C33.0262 6.89642 32.1551 6.31342 31.0219 6.1006V6.0058C31.0219 5.35869 30.4972 4.83392 29.85 4.83392C29.2028 4.83392 28.6781 5.35869 28.6781 6.0058V6.18451C28.5539 6.21416 28.4284 6.24791 28.3014 6.28599C26.9504 6.69076 25.9314 7.99611 25.8231 9.46014C25.7161 10.9089 26.4887 12.1663 27.8897 12.8235C28.0671 12.9067 28.337 13.0192 28.6781 13.1527V16.8083C28.2428 16.6549 27.8523 16.4218 27.5889 16.0965ZM32.1407 15.8331C32.0733 16.3666 31.6741 16.7506 31.0216 16.9298V14.0388C31.8865 14.4881 32.2142 15.2515 32.1407 15.8331ZM28.1604 9.63287C28.1883 9.25506 28.3946 8.89248 28.678 8.68248V10.589C28.3048 10.3532 28.1308 10.0325 28.1604 9.63287Z" fill="#3C3F7B"/>
<path d="M59.7326 32.1263L54.8033 26.1473C54.6054 25.9072 54.32 25.7557 54.0103 25.7261C53.7012 25.6967 53.3918 25.7917 53.152 25.9899L50.9839 27.7842L48.0831 25.9808C45.1365 24.1493 41.3591 24.4038 38.6829 26.6147L32.2647 31.9173C31.169 32.8228 31.0094 34.4489 31.9088 35.5424C32.3819 36.1174 32.9783 36.5549 33.6491 36.8286L29.1021 40.5852L26.3519 38.3131C27.0227 38.0394 27.6191 37.602 28.0922 37.0269C28.9916 35.9335 28.832 34.3074 27.736 33.4017L21.3179 28.0992C18.6418 25.8884 14.8642 25.6338 11.9177 27.4654L9.01662 29.2686L6.84854 27.4745C6.60877 27.2761 6.29987 27.1807 5.99026 27.2107C5.68041 27.2402 5.39518 27.3917 5.19725 27.6318L0.267873 33.611C-0.143221 34.1097 -0.0730254 34.8471 0.424787 35.2591L2.26569 36.7829L1.76588 40.1969C1.35819 42.9825 2.45166 45.8259 4.61987 47.6177L16.6922 57.5941C17.3342 58.1245 18.1524 58.4144 18.9832 58.4144C19.1075 58.4144 19.2322 58.4079 19.3565 58.3949C20.299 58.295 21.1366 57.8374 21.7153 57.1061C22.07 56.6578 22.2964 56.145 22.3993 55.6143C22.7114 55.665 23.0308 55.6746 23.3485 55.6412C24.291 55.5415 25.1287 55.0838 25.7075 54.3526C26.0293 53.9459 26.2454 53.4863 26.3596 53.0084C27.4698 53.282 28.6758 53.0237 29.5499 52.2377C29.9888 51.8431 30.3137 51.3471 30.5031 50.7993C31.3726 51.5491 32.5528 51.7919 33.6409 51.5239C33.7551 52.0018 33.9712 52.4613 34.293 52.8681C34.8718 53.5993 35.7095 54.0569 36.6519 54.1565C36.9697 54.1903 37.2892 54.1803 37.6011 54.1297C37.704 54.6603 37.9303 55.1731 38.285 55.6215C38.8637 56.3529 39.7015 56.8106 40.6439 56.9102C40.7682 56.9233 40.8928 56.9299 41.0171 56.9299C41.8479 56.9299 42.6663 56.64 43.3083 56.1095L55.3806 46.1331C57.5487 44.3411 58.6422 41.4977 58.2344 38.7124L57.7346 35.2983L59.5754 33.7745C60.0735 33.3624 60.1437 32.6251 59.7326 32.1263ZM28.3697 46.0356C28.351 46.0202 28.3322 46.0056 28.313 45.9916L20.548 39.5723C20.0492 39.16 19.3106 39.23 18.8981 39.7288C18.4858 40.2276 18.5558 40.9663 19.0547 41.3786L27.1377 48.0608C27.1535 48.0739 27.1696 48.0865 27.186 48.0985L27.8978 48.6889C28.1781 48.9207 28.3432 49.2641 28.3509 49.6313C28.355 49.8267 28.3126 50.1986 27.9832 50.4947C27.5599 50.875 26.8847 50.8675 26.4123 50.4772L25.999 50.1357L25.9988 50.1356L17.5819 43.1774C17.0832 42.765 16.3445 42.835 15.932 43.3338C15.5196 43.8327 15.5897 44.5714 16.0885 44.9837L23.6803 51.2598C23.6838 51.2628 23.6873 51.2659 23.691 51.2688C24.1803 51.6732 24.2605 52.4041 23.8697 52.8981C23.6852 53.131 23.4128 53.2774 23.1022 53.3103C22.7699 53.3452 22.4328 53.2446 22.1791 53.0349L21.2007 52.2233C21.1978 52.2207 21.1947 52.2183 21.1917 52.2158C20.6933 51.8038 19.9551 51.8736 19.5425 52.3716C19.13 52.8699 19.1992 53.6081 19.697 54.0209L19.7027 54.0257C20.1886 54.4309 20.2671 55.1591 19.8774 55.6516C19.6931 55.8846 19.4205 56.0309 19.1101 56.0639C18.7774 56.0989 18.4406 55.9981 18.1853 55.7873L6.11295 45.811C4.57217 44.5377 3.7951 42.5165 4.0849 40.5363L4.6801 36.4701C4.7394 36.0652 4.58307 35.6586 4.26783 35.3977L2.82022 34.1994L6.25873 30.0286L8.17194 31.6119C8.56018 31.933 9.1099 31.9701 9.53776 31.7043L13.1549 29.4559C15.2454 28.1561 17.9258 28.3372 19.8249 29.906L26.2428 35.2083C26.3447 35.2924 26.3621 35.4402 26.282 35.5377C25.9277 35.9683 25.4266 36.2348 24.871 36.2884C24.3106 36.3413 23.7628 36.1738 23.3272 35.8142L23.3269 35.8139C23.3269 35.8138 23.3269 35.8138 23.3269 35.8138C22.828 35.4016 22.0892 35.472 21.6771 35.9709C21.2648 36.4699 21.3353 37.2084 21.8341 37.6207L29.8021 44.2034C30.0582 44.4152 30.2217 44.7289 30.2508 45.0644C30.2778 45.3778 30.1862 45.6751 29.9924 45.9016C29.5848 46.3781 28.8569 46.4382 28.3697 46.0356ZM55.3203 34.9855L55.9155 39.0518C56.2055 41.032 55.4283 43.0531 53.8876 44.3264L41.8153 54.3028C41.5599 54.5137 41.2226 54.6141 40.8904 54.5795C40.5799 54.5466 40.3073 54.4002 40.123 54.1671C39.7465 53.6912 39.8072 52.9954 40.2498 52.5835L46.8778 47.1041C47.3767 46.6918 47.4467 45.9531 47.0342 45.4542C46.6219 44.9554 45.8831 44.8852 45.3844 45.2977L38.8629 50.6892C38.8445 50.7027 38.8263 50.7167 38.8085 50.7314C38.8055 50.7338 38.8025 50.7363 38.7995 50.7389L37.8227 51.549C37.5674 51.7602 37.2303 51.8611 36.8979 51.8257C36.5873 51.7929 36.3147 51.6465 36.1304 51.4135C35.7399 50.92 35.8195 50.1902 36.3076 49.7854L36.3091 49.7842C36.3138 49.7803 36.3184 49.7763 36.3231 49.7723L43.9117 43.4989C44.4105 43.0865 44.4805 42.3479 44.0682 41.849C43.6557 41.3502 42.9172 41.2801 42.4183 41.6926L34.0014 48.6508C34.0001 48.6519 33.9988 48.6531 33.9974 48.6541L33.5879 48.9925C33.1155 49.3829 32.4402 49.3905 32.017 49.01C31.6877 48.714 31.6453 48.342 31.6494 48.1467C31.657 47.7794 31.8222 47.4361 32.1042 47.2029L32.8135 46.6145C32.8301 46.6022 32.8465 46.5894 32.8625 46.5761L40.9455 39.8939C41.4444 39.4816 41.5144 38.7429 41.1021 38.244C40.6897 37.7452 39.951 37.675 39.4522 38.0876L32.3785 43.9356C32.1601 43.3394 31.7869 42.8036 31.2944 42.3968L30.9413 42.1051L41.5434 33.3433L43.7744 36.0495C44.1861 36.5489 44.9246 36.6201 45.4241 36.2082C45.9234 35.7965 45.9946 35.058 45.5828 34.5586L42.6053 30.947C42.4073 30.707 42.1222 30.5554 41.8125 30.5258C41.5029 30.4967 41.1942 30.591 40.9543 30.7892L36.6343 34.3609C36.2052 34.6988 35.6727 34.8554 35.1292 34.8038C34.5736 34.7503 34.0724 34.4837 33.7182 34.0531C33.6379 33.9556 33.6555 33.8079 33.7571 33.7238L40.1751 28.4215C42.0743 26.8527 44.7548 26.6716 46.8453 27.9712L50.4623 30.2198C50.8902 30.4857 51.44 30.4486 51.8281 30.1274L53.7415 28.544L57.1799 32.7147L55.7322 33.9131C55.4172 34.1741 55.261 34.5806 55.3203 34.9855Z" fill="#3C3F7B"/>
<path d="M21.4176 55.0981C21.1545 55.0981 20.8901 55.0101 20.6716 54.8294L13.1224 48.5881C12.6235 48.1757 12.5536 47.4371 12.966 46.9382C13.3783 46.4395 14.1171 46.3694 14.6158 46.7818L22.1651 53.0231C22.6639 53.4355 22.734 54.1741 22.3216 54.673C22.0898 54.9533 21.755 55.0981 21.4176 55.0981Z" fill="#3C3F7B"/>
</g>
<defs>
<clipPath id="clip0">
<rect width="60" height="60" fill="white"/>
</clipPath>
</defs>
</svg>
