<svg width="60" height="60" viewBox="0 0 60 60" fill="none" xmlns="http://www.w3.org/2000/svg">
<g clip-path="url(#clip0)">
<path d="M60 22.2521C60 10.2862 50.3038 0.585938 38.3428 0.585938C28.7357 0.585938 20.5896 6.8441 17.7556 15.5078C19.3831 15.117 21.0819 14.9099 22.8292 14.9099C34.7902 14.9099 44.4864 24.6102 44.4864 36.5761C44.4864 38.9307 44.1108 41.1976 43.4166 43.3201C46.3787 42.6083 49.1038 41.2874 51.4527 39.4976L52.4527 38.7483L58.4263 39.634L56.8054 33.5821C58.831 30.2854 60 26.4055 60 22.2521Z" fill="#BBBFEA"/>
<path d="M13.3827 40.4721C14.9772 40.4721 16.2698 39.1789 16.2698 37.5838C16.2698 35.9886 14.9772 34.6954 13.3827 34.6954C11.7882 34.6954 10.4955 35.9886 10.4955 37.5838C10.4955 39.1789 11.7882 40.4721 13.3827 40.4721Z" fill="#BBBFEA"/>
<path d="M22.829 40.4721C24.4236 40.4721 25.7162 39.1789 25.7162 37.5838C25.7162 35.9886 24.4236 34.6954 22.829 34.6954C21.2345 34.6954 19.9419 35.9886 19.9419 37.5838C19.9419 39.1789 21.2345 40.4721 22.829 40.4721Z" fill="#BBBFEA"/>
<path d="M32.2756 40.4721C33.8701 40.4721 35.1627 39.1789 35.1627 37.5838C35.1627 35.9886 33.8701 34.6954 32.2756 34.6954C30.681 34.6954 29.3884 35.9886 29.3884 37.5838C29.3884 39.1789 30.681 40.4721 32.2756 40.4721Z" fill="#BBBFEA"/>
<path d="M22.8291 59.4141C17.7892 59.4141 13.0103 57.8025 9.00902 54.7534L8.40773 54.3028L2.9175 55.1169C2.52727 55.1745 2.13363 55.0322 1.8709 54.7376C1.60816 54.443 1.51148 54.0359 1.61355 53.6545L3.10605 48.0822C1.0725 44.5996 0 40.6327 0 36.576C0 23.983 10.2411 13.7379 22.8291 13.7379C35.4171 13.7379 45.6582 23.983 45.6582 36.576C45.6582 49.169 35.4171 59.4141 22.8291 59.4141ZM8.71934 51.9001C8.97117 51.9001 9.21809 51.9813 9.42211 52.1343L10.4221 52.8836C14.0191 55.6246 18.3068 57.0703 22.8291 57.0703C34.1248 57.0703 43.3145 47.8766 43.3145 36.576C43.3145 25.2754 34.1248 16.0817 22.8291 16.0817C11.5334 16.0817 2.34375 25.2755 2.34375 36.576C2.34375 40.3699 3.38848 44.0756 5.36508 47.2923C5.53359 47.5665 5.58188 47.8981 5.49867 48.2091L4.33945 52.5368L8.54742 51.9129C8.60473 51.9044 8.66215 51.9001 8.71934 51.9001Z" fill="#3C3F7B"/>
</g>
<defs>
<clipPath id="clip0">
<rect width="60" height="60" fill="white"/>
</clipPath>
</defs>
</svg>
