<svg width="65" height="41" viewBox="0 0 65 41" fill="none" xmlns="http://www.w3.org/2000/svg">
<circle cx="27.5913" cy="20.2046" r="2.20052" fill="#00063D"/>
<circle cx="35.7163" cy="20.2046" r="2.20052" fill="#00063D"/>
<path fill-rule="evenodd" clip-rule="evenodd" d="M19.6094 3.03102L21.7304 0.102478L25.925 13.7673H37.3488L40.1808 7.62193H33.4588V4.7392H44.6876L39.1987 16.65H23.7899L19.6094 3.03102Z" fill="#00063D"/>
<path d="M18.5812 3.10834L20.6511 0.0614624H11.849V3.10834H18.5812Z" fill="#00063D"/>
<path fill-rule="evenodd" clip-rule="evenodd" d="M1.31559 36.205C2.01152 36.7687 2.96485 37.0505 4.17557 37.0505C5.37676 37.0505 6.33009 36.717 7.03555 36.05C7.68382 35.3924 8.00795 34.6596 8.00795 33.8517C8.00795 33.1095 7.75531 32.4613 7.25005 31.9071C6.74479 31.3622 6.01549 31.0052 5.06217 30.8361L3.60358 30.5684C2.88858 30.4274 2.53108 30.0705 2.53108 29.4974C2.53108 29.1968 2.67408 28.9337 2.96008 28.7083C3.26514 28.4828 3.62741 28.3701 4.04687 28.3701C4.55214 28.3701 4.9573 28.4969 5.26236 28.7505C5.57696 28.9948 5.78193 29.333 5.87726 29.7651L7.83635 29.2015C7.73148 28.4969 7.38352 27.8722 6.79245 27.3273C6.13466 26.7542 5.229 26.4677 4.07547 26.4677C3.07448 26.4677 2.20695 26.7683 1.47289 27.3696C0.748362 27.9896 0.386097 28.7552 0.386097 29.6665C0.386097 30.4368 0.633962 31.0804 1.12969 31.597C1.64449 32.1231 2.32135 32.4613 3.16028 32.6116L4.63317 32.9076C4.99543 32.9733 5.28143 33.1048 5.49116 33.3021C5.71043 33.4994 5.82006 33.7249 5.82006 33.9785C5.82006 34.3073 5.67706 34.5845 5.39106 34.8099C5.13367 35.026 4.75234 35.134 4.24707 35.134C3.65601 35.134 3.16028 34.9837 2.75988 34.6831C2.34995 34.3825 2.10209 33.955 2.01629 33.4008L0 33.8658C0.171599 34.8522 0.610129 35.6319 1.31559 36.205ZM12.1839 31.6675H13.9427V29.892H12.1839V27.6937H10.1533V29.892H8.73758V31.6675H10.1104V34.4295C10.1104 36.1392 10.9684 36.9941 12.6844 36.9941C13.1705 36.9941 13.5852 36.9378 13.9284 36.825V35.1622C13.6329 35.1998 13.3898 35.2186 13.1991 35.2186C12.5223 35.2186 12.1839 34.918 12.1839 34.3167V31.6675ZM14.8455 33.4149C14.8455 32.7479 15.0219 32.1231 15.3746 31.5407C15.7178 30.9676 16.1897 30.5214 16.7903 30.202C17.41 29.8826 18.063 29.7229 18.7494 29.7229C19.4644 29.7229 20.1127 29.8826 20.6942 30.202C21.2853 30.512 21.7524 30.9488 22.0956 31.5125C22.4388 32.0574 22.6104 32.6774 22.6104 33.3726C22.6104 34.0584 22.4388 34.6831 22.0956 35.2468C21.7429 35.8198 21.271 36.2614 20.6799 36.5714C20.0888 36.8908 19.4358 37.0505 18.7208 37.0505C18.0153 37.0505 17.3623 36.8955 16.7617 36.5855C16.1707 36.2567 15.7083 35.8198 15.3746 35.275C15.0219 34.6925 14.8455 34.0725 14.8455 33.4149ZM17.4767 32.1043C17.1431 32.4519 16.9762 32.8794 16.9762 33.3867C16.9762 33.894 17.1431 34.3214 17.4767 34.669C17.8199 35.0072 18.2394 35.1763 18.7351 35.1763C19.2213 35.1763 19.636 35.0072 19.9792 34.669C20.3129 34.3496 20.4797 33.9222 20.4797 33.3867C20.4797 32.8606 20.3129 32.4331 19.9792 32.1043C19.636 31.7661 19.2165 31.597 18.7208 31.597C18.2346 31.597 17.8199 31.7661 17.4767 32.1043ZM28.4833 31.893V29.892C28.2736 29.845 28.0877 29.8215 27.9256 29.8215C27.4572 29.8215 27.0636 29.9247 26.7448 30.1309V32.1972C27.0292 31.9568 27.3894 31.8366 27.8255 31.8366C28.0162 31.8366 28.2354 31.8554 28.4833 31.893ZM26.0677 33.8833C26.0677 33.8857 26.0677 33.8881 26.0677 33.8905V36.9625H24.0431V31.5458L26.0666 29.8531V30.9066H26.0677V33.8833ZM31.0956 32.5976H34.1558C34.1272 32.3157 34.0032 32.0527 33.784 31.8084C33.5266 31.5266 33.1452 31.3857 32.64 31.3857C32.211 31.3857 31.8582 31.5172 31.5818 31.7802C31.2958 32.0527 31.1337 32.3251 31.0956 32.5976ZM36.2007 33.9644H31.0527C31.1099 34.3684 31.3053 34.7019 31.639 34.9649C31.9631 35.2186 32.3492 35.3454 32.7973 35.3454C33.0928 35.3454 33.3931 35.2562 33.6982 35.0777C34.0032 34.8992 34.2034 34.6737 34.2988 34.4013L36.0148 34.979C35.786 35.6272 35.376 36.1345 34.785 36.5009C34.1939 36.8673 33.5409 37.0505 32.8259 37.0505C32.1204 37.0505 31.4674 36.8955 30.8668 36.5855C30.2853 36.2942 29.8134 35.8621 29.4511 35.289C29.0984 34.7066 28.922 34.0725 28.922 33.3867C28.922 32.7197 29.0936 32.1043 29.4368 31.5407C29.7705 30.9864 30.2328 30.5402 30.8239 30.202C31.3864 29.8826 32.0108 29.7229 32.6972 29.7229C33.7458 29.7229 34.5991 30.047 35.2569 30.6952C35.9147 31.3434 36.2436 32.1889 36.2436 33.2317C36.2436 33.5511 36.2293 33.7953 36.2007 33.9644ZM43.2276 29.441H43.2562L45.5156 36.8955H47.8465L50.9352 26.6227H48.7188L46.6596 33.9785L44.4002 26.6227H42.1122L39.8671 33.9222L37.8794 26.6227H35.5772L38.623 36.8955H40.9539L43.2276 29.441ZM52.7044 37.0364C52.0657 37.0364 51.5128 36.8438 51.0456 36.4586C50.5785 36.0641 50.3449 35.5568 50.3449 34.9368V34.8804C50.3449 33.9691 50.8216 33.3491 51.7749 33.0203C52.2802 32.8324 52.8474 32.7385 53.4766 32.7385H54.163C54.5348 32.7385 54.7207 32.5788 54.7207 32.2594C54.7207 32.0057 54.6206 31.799 54.4204 31.6393C54.2202 31.4702 53.9485 31.3857 53.6053 31.3857C53.2907 31.3857 53.019 31.4702 52.7902 31.6393C52.5614 31.8084 52.4089 32.0433 52.3326 32.3439L50.5022 31.9352C50.588 31.4467 50.793 31.0381 51.1171 30.7093C51.4413 30.3617 51.8274 30.1127 52.2754 29.9624C52.733 29.8027 53.2097 29.7229 53.7054 29.7229C54.6111 29.7135 55.3451 29.9577 55.9076 30.4556C56.4796 30.9535 56.7656 31.6534 56.7656 32.5553V35.7682C56.7656 36.0876 56.7847 36.4633 56.8228 36.8955H54.8923C54.8637 36.7076 54.8494 36.4164 54.8494 36.0218H54.8208C54.3251 36.6982 53.6196 37.0364 52.7044 37.0364ZM53.305 35.5427C53.734 35.5427 54.0772 35.4065 54.3346 35.134C54.592 34.8804 54.7207 34.5657 54.7207 34.1899V34.0208H53.4766C53.2192 34.0208 52.9857 34.0913 52.7759 34.2322C52.5471 34.3731 52.4327 34.5704 52.4327 34.824C52.4327 35.0495 52.5138 35.228 52.6758 35.3595C52.8379 35.4816 53.0476 35.5427 53.305 35.5427ZM58.4649 40.3479H60.6814L65 29.892H62.855L61.2677 33.894L59.4945 29.892H57.2066L60.1952 36.1486L58.4649 40.3479Z" fill="#00063D"/>
<path d="M24.0365 31.2073L26.0677 29.5145V36.9625H24.0365V31.2073Z" fill="#00063D"/>
</svg>
