<svg width="22" height="22" viewBox="0 0 22 22" fill="none" xmlns="http://www.w3.org/2000/svg">
<path d="M21.8496 4.59891L21.8427 4.59032C21.8423 4.58989 21.8419 4.58946 21.8414 4.5886C21.841 4.58817 21.8401 4.58731 21.8397 4.58688L21.8328 4.57871C21.6618 4.38063 21.4328 4.32005 21.227 4.35657C21.1333 4.357 21.0418 4.35915 20.952 4.36302C21.126 4.09232 21.279 3.78811 21.3937 3.44652C21.4723 3.21192 21.4096 2.95325 21.233 2.78053C21.056 2.6078 20.796 2.55151 20.5636 2.6353C20.3436 2.71478 18.887 3.23813 18.3821 3.42633C18.3632 3.43363 18.3499 3.43707 18.3422 3.43879C18.3275 3.43148 18.294 3.41215 18.2365 3.36359C16.8838 2.23527 15.0809 1.88809 13.4138 2.43507C11.8154 2.9597 10.6243 4.23326 10.2282 5.84239C10.1177 6.29226 10.101 6.74814 10.0872 7.18985C7.09198 6.85341 4.51737 5.50295 2.42571 3.16938C2.28607 3.01384 2.07982 2.93564 1.87186 2.95927C1.6639 2.98333 1.48085 3.10665 1.38031 3.29012C0.89134 4.18298 0.682089 5.04577 0.740954 5.92661C0.791656 6.68885 1.00477 7.38363 1.3773 8.00752C1.21746 7.9985 1.05762 8.0492 0.9313 8.15275C0.771031 8.2838 0.683807 8.4836 0.696698 8.69027C0.766735 9.84782 1.13368 10.8361 1.78721 11.6275C1.97111 11.8505 2.17607 12.0576 2.4038 12.2501C2.35653 12.2888 2.31485 12.3348 2.28005 12.3868C2.16017 12.5642 2.13654 12.7902 2.21689 12.9887C2.79695 14.4208 3.7461 15.3812 5.09786 15.8946C3.74094 16.5542 2.28478 16.8283 0.684237 16.7304C0.38948 16.7123 0.120074 16.8971 0.0302719 17.1785C-0.0591005 17.4599 0.0543337 17.7663 0.305694 17.9218C2.39993 19.2182 4.87013 19.8193 7.25354 19.8193C9.69624 19.8193 12.0315 19.1576 14.0695 17.8784C15.2133 17.1605 16.2269 16.2676 17.0819 15.2252C17.5146 14.698 17.9013 14.1381 18.2408 13.5503C18.5802 12.9625 18.8715 12.3459 19.113 11.7053C19.6372 10.3132 19.9148 8.83379 19.9375 7.30758C19.9483 7.27407 19.9917 7.19286 20.06 7.12239C20.3861 6.78381 20.7505 6.44479 21.1032 6.11695C21.3 5.93391 21.5024 5.74571 21.6996 5.55623C21.8929 5.43321 22 5.22177 22 5.01054C22 4.87261 21.9544 4.7291 21.8496 4.59891ZM19.1319 6.22781C19.0202 6.34339 18.6558 6.76103 18.6485 7.27192C18.63 8.65504 18.3804 9.99348 17.9065 11.2507C16.101 16.0429 11.3737 18.9483 6.1424 18.4804C5.10387 18.3876 4.12121 18.1831 3.2017 17.8694C4.60932 17.6077 5.9194 17.0414 7.16245 16.1628C7.38029 16.0085 7.48083 15.7361 7.41509 15.4778C7.34935 15.2192 7.13108 15.0275 6.8664 14.9962C5.47769 14.832 4.52381 14.3263 3.88059 13.3913H4.5526C4.8624 13.3913 5.12879 13.1705 5.18594 12.8659C5.24309 12.5612 5.07508 12.2587 4.78634 12.1461C3.32244 11.5764 2.46008 10.7321 2.12923 9.52599C2.51938 9.62868 2.90093 9.72923 3.28721 9.83149C3.59228 9.91184 3.91067 9.75973 4.04 9.47185C4.1689 9.18397 4.0705 8.84496 3.80754 8.67094C2.68695 7.92932 2.10474 7.0038 2.02697 5.8411C2.00248 5.47459 2.04287 5.11624 2.15244 4.74844C4.50577 7.05579 7.36353 8.32806 10.6609 8.53344C11.0132 8.55536 11.3178 8.28982 11.3436 7.93748C11.3608 7.70589 11.3677 7.48418 11.3741 7.26977C11.3866 6.86459 11.3986 6.48132 11.4798 6.15047C11.7733 4.95855 12.6249 4.05064 13.816 3.65964C15.0577 3.25231 16.4013 3.5114 17.4106 4.35357C17.5769 4.49192 18.0822 4.91386 18.8324 4.63414C18.9063 4.60664 18.9798 4.57957 19.0537 4.55208C18.9927 4.60235 18.9295 4.65262 18.8638 4.70289C18.5596 4.85353 18.4223 5.2185 18.5583 5.53474L18.5669 5.55537C18.7078 5.88235 19.0868 6.03359 19.4138 5.89266C19.4176 5.89094 19.4219 5.88922 19.4258 5.8875C19.4451 5.88278 19.4649 5.87805 19.4847 5.87333C19.3652 5.9902 19.2471 6.10836 19.1319 6.22781Z" fill="#00063D"/>
</svg>
