<svg width="22" height="22" viewBox="0 0 22 22" fill="none" xmlns="http://www.w3.org/2000/svg">
<path d="M21.8496 4.59892L21.8427 4.59033C21.8423 4.5899 21.8419 4.58947 21.8414 4.58861C21.841 4.58818 21.8401 4.58732 21.8397 4.58689L21.8328 4.57873C21.6618 4.38065 21.4328 4.32007 21.227 4.35659C21.1333 4.35702 21.0418 4.35917 20.952 4.36303C21.126 4.09234 21.279 3.78813 21.3937 3.44654C21.4723 3.21193 21.4096 2.95327 21.233 2.78054C21.056 2.60781 20.796 2.55152 20.5636 2.63531C20.3436 2.7148 18.887 3.23814 18.3821 3.42634C18.3632 3.43365 18.3499 3.43708 18.3422 3.4388C18.3275 3.4315 18.294 3.41216 18.2365 3.36361C16.8838 2.23528 15.0809 1.88811 13.4138 2.43508C11.8154 2.95971 10.6243 4.23327 10.2282 5.8424C10.1177 6.29227 10.101 6.74816 10.0872 7.18986C7.09198 6.85343 4.51737 5.50296 2.42571 3.1694C2.28607 3.01385 2.07982 2.93565 1.87186 2.95929C1.6639 2.98335 1.48085 3.10666 1.38031 3.29013C0.89134 4.183 0.682089 5.04579 0.740954 5.92662C0.791656 6.68886 1.00477 7.38365 1.3773 8.00754C1.21746 7.99851 1.05762 8.04921 0.9313 8.15277C0.771031 8.28382 0.683807 8.48362 0.696698 8.69029C0.766735 9.84783 1.13368 10.8361 1.78721 11.6275C1.97111 11.8505 2.17607 12.0577 2.4038 12.2501C2.35653 12.2888 2.31485 12.3348 2.28005 12.3868C2.16017 12.5642 2.13654 12.7902 2.21689 12.9888C2.79695 14.4209 3.7461 15.3812 5.09786 15.8946C3.74094 16.5542 2.28478 16.8283 0.684237 16.7304C0.38948 16.7123 0.120074 16.8971 0.0302719 17.1785C-0.0591005 17.46 0.0543337 17.7663 0.305694 17.9219C2.39993 19.2182 4.87013 19.8193 7.25354 19.8193C9.69624 19.8193 12.0315 19.1576 14.0695 17.8785C15.2133 17.1605 16.2269 16.2676 17.0819 15.2252C17.5146 14.698 17.9013 14.1381 18.2408 13.5503C18.5802 12.9625 18.8715 12.346 19.113 11.7053C19.6372 10.3132 19.9148 8.8338 19.9375 7.3076C19.9483 7.27408 19.9917 7.19287 20.06 7.12241C20.3861 6.78382 20.7505 6.44481 21.1032 6.11697C21.3 5.93392 21.5024 5.74573 21.6996 5.55624C21.8929 5.43322 22 5.22178 22 5.01055C22 4.87263 21.9544 4.72912 21.8496 4.59892ZM19.1319 6.22782C19.0202 6.3434 18.6558 6.76105 18.6485 7.27193C18.63 8.65506 18.3804 9.99349 17.9065 11.2507C16.101 16.0429 11.3737 18.9484 6.1424 18.4804C5.10387 18.3876 4.12121 18.1831 3.2017 17.8694C4.60932 17.6078 5.9194 17.0415 7.16245 16.1628C7.38029 16.0085 7.48083 15.7361 7.41509 15.4779C7.34935 15.2192 7.13108 15.0276 6.8664 14.9962C5.47769 14.8321 4.52381 14.3263 3.88059 13.3914H4.5526C4.8624 13.3914 5.12879 13.1705 5.18594 12.8659C5.24309 12.5612 5.07508 12.2587 4.78634 12.1462C3.32244 11.5764 2.46008 10.7321 2.12923 9.52601C2.51938 9.6287 2.90093 9.72924 3.28721 9.83151C3.59228 9.91186 3.91067 9.75975 4.04 9.47187C4.1689 9.18399 4.0705 8.84497 3.80754 8.67095C2.68695 7.92933 2.10474 7.00382 2.02697 5.84111C2.00248 5.4746 2.04287 5.11625 2.15244 4.74845C4.50577 7.05581 7.36353 8.32807 10.6609 8.53346C11.0132 8.55537 11.3178 8.28983 11.3436 7.9375C11.3608 7.7059 11.3677 7.48419 11.3741 7.26978C11.3866 6.8646 11.3986 6.48133 11.4798 6.15048C11.7733 4.95856 12.6249 4.05066 13.816 3.65966C15.0577 3.25232 16.4013 3.51142 17.4106 4.35358C17.5769 4.49194 18.0822 4.91388 18.8324 4.63416C18.9063 4.60666 18.9798 4.57959 19.0537 4.55209C18.9927 4.60236 18.9295 4.65263 18.8638 4.70291C18.5596 4.85355 18.4223 5.21852 18.5583 5.53476L18.5669 5.55538C18.7078 5.88236 19.0868 6.03361 19.4138 5.89268C19.4176 5.89096 19.4219 5.88924 19.4258 5.88752C19.4451 5.88279 19.4649 5.87807 19.4847 5.87334C19.3652 5.99021 19.2471 6.10837 19.1319 6.22782Z" fill="white"/>
</svg>
