<svg width="60" height="60" viewBox="0 0 60 60" fill="none" xmlns="http://www.w3.org/2000/svg">
<path d="M55.3127 25.1953V15.8203C55.3127 15.1731 54.7881 14.6484 54.1409 14.6484H5.85938C5.21215 14.6484 4.6875 15.1731 4.6875 15.8203V25.1953C4.6875 25.8425 5.21215 26.3672 5.85938 26.3672H54.1409C54.7881 26.3672 55.3127 25.8425 55.3127 25.1953ZM52.969 24.0234H7.03125V16.9922H52.969V24.0234Z" fill="#3C3F7B"/>
<path d="M56.4845 0.585938H3.51562C1.57711 0.585938 0 2.16304 0 4.10156V50.9765C0 52.915 1.57711 54.4921 3.51562 54.4921H31.7579C33.3127 54.4302 33.3115 52.2096 31.7579 52.1483H3.51562C2.86945 52.1483 2.34375 51.6226 2.34375 50.9765V12.3047H15.2343C18.0639 12.3047 20.4315 10.2883 20.9759 7.61717H57.6563V50.9765C57.6563 51.6226 57.1306 52.1483 56.4844 52.1483H52.9688C51.4139 52.2102 51.4151 54.4308 52.9688 54.4921H56.4844C58.4229 54.4921 60 52.915 60 50.9765V4.10156C60 2.16304 58.423 0.585938 56.4845 0.585938ZM19.9218 5.27343C19.2746 5.27343 18.75 5.79808 18.75 6.4453C18.75 8.38381 17.1729 9.96092 15.2343 9.96092H2.34375V4.10156C2.34375 3.45538 2.86945 2.92968 3.51562 2.92968H56.4845C57.1307 2.92968 57.6564 3.45538 57.6564 4.10156V5.27343H19.9218Z" fill="#3C3F7B"/>
<path d="M15.2348 5.27344H15.234C14.5868 5.27344 14.0625 5.79809 14.0625 6.44531C14.1244 7.99957 16.3452 7.99957 16.4067 6.44531C16.4067 5.79809 15.8821 5.27344 15.2348 5.27344Z" fill="#3C3F7B"/>
<path d="M10.5471 5.27344H10.5463C9.89905 5.27344 9.37476 5.79809 9.37476 6.44531C9.43663 7.99957 11.6575 7.99957 11.719 6.44531C11.719 5.79809 11.1943 5.27344 10.5471 5.27344Z" fill="#3C3F7B"/>
<path d="M5.85948 5.27344H5.85866C5.21143 5.27344 4.68713 5.79809 4.68713 6.44531C4.74901 7.99957 6.96983 7.99957 7.03135 6.44531C7.03135 5.79809 6.5067 5.27344 5.85948 5.27344Z" fill="#3C3F7B"/>
<path d="M25.3124 30.1174H5.85942C4.30458 30.1793 4.30575 32.3999 5.85942 32.4612H25.3124C26.8673 32.3992 26.8661 30.1787 25.3124 30.1174Z" fill="#3C3F7B"/>
<path d="M25.3124 35.3281H5.85942C4.30458 35.39 4.30575 37.6106 5.85942 37.6719H25.3124C26.8673 37.61 26.8661 35.3895 25.3124 35.3281Z" fill="#3C3F7B"/>
<path d="M25.3124 40.5391H5.85942C4.30458 40.6009 4.30575 42.8215 5.85942 42.8828H25.3124C26.8673 42.8209 26.8661 40.6004 25.3124 40.5391Z" fill="#3C3F7B"/>
<path d="M25.3124 45.7499H5.85942C4.30458 45.8118 4.30575 48.0323 5.85942 48.0936H25.3124C26.8673 48.0318 26.8661 45.8112 25.3124 45.7499Z" fill="#3C3F7B"/>
<path fill-rule="evenodd" clip-rule="evenodd" d="M30.0001 31.2892H54.1409V59.4142H30.0001V31.2892Z" fill="#BBBFEA"/>
<path d="M45.2931 41.064V38.0276C45.2931 37.3804 44.7684 36.8557 44.1212 36.8557H34.7462C34.099 36.8557 33.5743 37.3804 33.5743 38.0276V47.4026C33.5743 48.0498 34.099 48.5745 34.7462 48.5745H37.7827C38.3353 51.5708 40.9673 53.8479 44.1212 53.8479C51.973 53.6195 52.9072 42.6749 45.2931 41.064ZM35.9181 39.1995H42.9493V41.064C40.333 41.5466 38.2652 43.6144 37.7827 46.2307H35.9181V39.1995ZM42.9493 43.4715V46.2306H40.1903C40.5848 44.9097 41.6284 43.8661 42.9493 43.4715ZM44.1213 51.5042C42.2668 51.5042 40.6957 50.2669 40.1903 48.5745H44.1212C44.7684 48.5745 45.2931 48.0498 45.2931 47.4026V43.4715C49.7625 44.9026 48.8654 51.3905 44.1213 51.5042Z" fill="#3C3F7B"/>
</svg>
