<svg width="22" height="22" viewBox="0 0 22 22" fill="none" xmlns="http://www.w3.org/2000/svg">
<g clip-path="url(#clip0)">
<path d="M9.11079 7.20142C8.6552 6.92917 8.07129 7.25825 8.07129 7.79175V14.2084C8.07129 14.7447 8.65612 15.0692 9.11079 14.7997L14.4907 11.5959C14.938 11.3292 14.9371 10.682 14.4916 10.4143L9.11079 7.20142ZM9.44629 12.9993V9.00267L12.7967 11.0037L9.44629 12.9993Z" fill="#00063D"/>
<path d="M18.2453 2.99862C13.9801 2.36521 8.02175 2.36521 3.75467 2.99862C2.04783 3.25162 0.703083 4.59179 0.40975 6.33162C-0.136583 9.56104 -0.136583 12.4403 0.40975 15.6688C0.703083 17.4095 2.04783 18.7488 3.75467 19.0018C5.89233 19.319 8.45167 19.4775 11.0101 19.4775C13.5639 19.4775 16.1168 19.3199 18.2463 19.0027C19.9513 18.7497 21.2951 17.4105 21.5903 15.6697C22.1366 12.4403 22.1366 9.56012 21.5903 6.33071C21.2969 4.59179 19.9522 3.25162 18.2453 2.99862ZM20.2345 15.4405C20.0392 16.5919 19.1593 17.4774 18.0437 17.6424C13.9022 18.2575 8.10883 18.2575 3.95633 17.6415C2.83983 17.4755 1.95892 16.591 1.76458 15.4396C1.23842 12.3285 1.23842 9.67287 1.76458 6.55987C1.95983 5.40854 2.83983 4.52487 3.95725 4.35804C6.03075 4.05096 8.51583 3.89696 10.9991 3.89696C13.4842 3.89696 15.9693 4.05096 18.0428 4.35804C19.1593 4.52396 20.0402 5.40854 20.2345 6.55987C20.7607 9.67287 20.7607 12.3285 20.2345 15.4405Z" fill="#00063D"/>
</g>
<defs>
<clipPath id="clip0">
<rect width="22" height="22" fill="white"/>
</clipPath>
</defs>
</svg>
