<svg width="22" height="22" viewBox="0 0 22 22" fill="none" xmlns="http://www.w3.org/2000/svg">
<g clip-path="url(#clip0)">
<path d="M9.11079 7.20142C8.6552 6.92917 8.07129 7.25825 8.07129 7.79175V14.2084C8.07129 14.7447 8.65612 15.0692 9.11079 14.7997L14.4907 11.5959C14.938 11.3292 14.9371 10.682 14.4916 10.4143L9.11079 7.20142ZM9.44629 12.9993V9.00267L12.7967 11.0037L9.44629 12.9993Z" fill="white"/>
<path d="M18.2453 2.99864C13.9801 2.36522 8.02175 2.36522 3.75467 2.99864C2.04783 3.25164 0.703083 4.5918 0.40975 6.33164C-0.136583 9.56105 -0.136583 12.4403 0.40975 15.6688C0.703083 17.4096 2.04783 18.7488 3.75467 19.0018C5.89233 19.319 8.45167 19.4776 11.0101 19.4776C13.5639 19.4776 16.1168 19.3199 18.2463 19.0027C19.9513 18.7497 21.2951 17.4105 21.5903 15.6697C22.1366 12.4403 22.1366 9.56014 21.5903 6.33072C21.2969 4.5918 19.9522 3.25164 18.2453 2.99864ZM20.2345 15.4406C20.0392 16.5919 19.1593 17.4774 18.0437 17.6424C13.9022 18.2575 8.10883 18.2575 3.95633 17.6415C2.83983 17.4756 1.95892 16.591 1.76458 15.4396C1.23842 12.3285 1.23842 9.67289 1.76458 6.55989C1.95983 5.40855 2.83983 4.52489 3.95725 4.35805C6.03075 4.05097 8.51583 3.89697 10.9991 3.89697C13.4842 3.89697 15.9693 4.05097 18.0428 4.35805C19.1593 4.52397 20.0402 5.40855 20.2345 6.55989C20.7607 9.67289 20.7607 12.3285 20.2345 15.4406Z" fill="white"/>
</g>
<defs>
<clipPath id="clip0">
<rect width="22" height="22" fill="white"/>
</clipPath>
</defs>
</svg>
